<mxfile host="app.diagrams.net" modified="2024-04-26T15:24:13.347Z" agent="Mozilla/5.0 (Windows NT 10.0; Win64; x64) AppleWebKit/537.36 (KHTML, like Gecko) Chrome/124.0.0.0 Safari/537.36" etag="v6NMCY_LrzLdat8q57HX" version="24.3.0" type="github" pages="2">
  <diagram id="R2lEEEUBdFMjLlhIrx00" name="Page-1">
    <mxGraphModel dx="1588" dy="908" grid="1" gridSize="12" guides="1" tooltips="1" connect="1" arrows="1" fold="1" page="1" pageScale="1" pageWidth="900" pageHeight="1600" math="0" shadow="0" extFonts="Permanent Marker^https://fonts.googleapis.com/css?family=Permanent+Marker">
      <root>
        <mxCell id="0" />
        <mxCell id="1" parent="0" />
        <mxCell id="i_z6lznoOYtikd_7tGOS-1" value="&lt;font style=&quot;font-size: 17px;&quot;&gt;Course&lt;/font&gt;" style="rounded=0;whiteSpace=wrap;html=1;" parent="1" vertex="1">
          <mxGeometry x="1188" y="224" width="120" height="60" as="geometry" />
        </mxCell>
        <mxCell id="i_z6lznoOYtikd_7tGOS-2" value="&lt;u&gt;course_ID&lt;/u&gt;" style="ellipse;whiteSpace=wrap;html=1;" parent="1" vertex="1">
          <mxGeometry x="1164" y="172" width="60" height="30" as="geometry" />
        </mxCell>
        <mxCell id="i_z6lznoOYtikd_7tGOS-3" value="Course_name" style="ellipse;whiteSpace=wrap;html=1;" parent="1" vertex="1">
          <mxGeometry x="1264" y="172" width="80" height="30" as="geometry" />
        </mxCell>
        <mxCell id="i_z6lznoOYtikd_7tGOS-4" value="" style="endArrow=none;html=1;rounded=0;entryX=0.5;entryY=1;entryDx=0;entryDy=0;exitX=0.25;exitY=0;exitDx=0;exitDy=0;" parent="1" source="i_z6lznoOYtikd_7tGOS-1" target="i_z6lznoOYtikd_7tGOS-2" edge="1">
          <mxGeometry width="50" height="50" relative="1" as="geometry">
            <mxPoint x="1344" y="332" as="sourcePoint" />
            <mxPoint x="1394" y="282" as="targetPoint" />
          </mxGeometry>
        </mxCell>
        <mxCell id="i_z6lznoOYtikd_7tGOS-5" value="" style="endArrow=none;html=1;rounded=0;entryX=0.5;entryY=1;entryDx=0;entryDy=0;exitX=0.75;exitY=0;exitDx=0;exitDy=0;" parent="1" source="i_z6lznoOYtikd_7tGOS-1" target="i_z6lznoOYtikd_7tGOS-3" edge="1">
          <mxGeometry width="50" height="50" relative="1" as="geometry">
            <mxPoint x="1224" y="242" as="sourcePoint" />
            <mxPoint x="1204" y="212" as="targetPoint" />
          </mxGeometry>
        </mxCell>
        <mxCell id="i_z6lznoOYtikd_7tGOS-6" value="&lt;span data-lucid-content=&quot;{&amp;quot;t&amp;quot;:&amp;quot;Instructor&amp;quot;,&amp;quot;m&amp;quot;:[{&amp;quot;s&amp;quot;:0,&amp;quot;n&amp;quot;:&amp;quot;a&amp;quot;,&amp;quot;v&amp;quot;:&amp;quot;center&amp;quot;},{&amp;quot;s&amp;quot;:0,&amp;quot;n&amp;quot;:&amp;quot;f&amp;quot;,&amp;quot;v&amp;quot;:&amp;quot;Roboto&amp;quot;,&amp;quot;e&amp;quot;:10},{&amp;quot;s&amp;quot;:0,&amp;quot;n&amp;quot;:&amp;quot;fc&amp;quot;,&amp;quot;v&amp;quot;:&amp;quot;Regular&amp;quot;,&amp;quot;e&amp;quot;:10},{&amp;quot;s&amp;quot;:0,&amp;quot;n&amp;quot;:&amp;quot;fid&amp;quot;,&amp;quot;v&amp;quot;:80337,&amp;quot;e&amp;quot;:10},{&amp;quot;s&amp;quot;:0,&amp;quot;n&amp;quot;:&amp;quot;s&amp;quot;,&amp;quot;v&amp;quot;:22.222222222222225,&amp;quot;e&amp;quot;:10},{&amp;quot;s&amp;quot;:0,&amp;quot;n&amp;quot;:&amp;quot;c&amp;quot;,&amp;quot;v&amp;quot;:&amp;quot;#3d4752ff&amp;quot;,&amp;quot;e&amp;quot;:10}]}&quot; data-lucid-type=&quot;application/vnd.lucid.text&quot;&gt;&lt;span style=&quot;color:#3d4752;font-size:16.66666666666667px;&quot;&gt;Instructor&lt;/span&gt;&lt;/span&gt;" style="rounded=0;whiteSpace=wrap;html=1;" parent="1" vertex="1">
          <mxGeometry x="393" y="224" width="120" height="60" as="geometry" />
        </mxCell>
        <mxCell id="i_z6lznoOYtikd_7tGOS-7" value="&lt;font color=&quot;#3d4752&quot;&gt;&lt;span style=&quot;font-size: 16.6667px;&quot;&gt;&lt;u&gt;&amp;nbsp; &amp;nbsp;id&amp;nbsp;&amp;nbsp;&lt;/u&gt;&lt;/span&gt;&lt;/font&gt;" style="ellipse;whiteSpace=wrap;html=1;" parent="1" vertex="1">
          <mxGeometry x="373" y="152" width="60" height="30" as="geometry" />
        </mxCell>
        <mxCell id="i_z6lznoOYtikd_7tGOS-8" value="Full name" style="ellipse;whiteSpace=wrap;html=1;" parent="1" vertex="1">
          <mxGeometry x="473" y="152" width="80" height="30" as="geometry" />
        </mxCell>
        <mxCell id="i_z6lznoOYtikd_7tGOS-9" value="" style="endArrow=none;html=1;rounded=0;entryX=0.5;entryY=1;entryDx=0;entryDy=0;" parent="1" source="i_z6lznoOYtikd_7tGOS-6" target="i_z6lznoOYtikd_7tGOS-7" edge="1">
          <mxGeometry width="50" height="50" relative="1" as="geometry">
            <mxPoint x="553" y="312" as="sourcePoint" />
            <mxPoint x="603" y="262" as="targetPoint" />
          </mxGeometry>
        </mxCell>
        <mxCell id="i_z6lznoOYtikd_7tGOS-10" value="" style="endArrow=none;html=1;rounded=0;entryX=0.5;entryY=1;entryDx=0;entryDy=0;exitX=0.75;exitY=0;exitDx=0;exitDy=0;" parent="1" source="i_z6lznoOYtikd_7tGOS-6" target="i_z6lznoOYtikd_7tGOS-8" edge="1">
          <mxGeometry width="50" height="50" relative="1" as="geometry">
            <mxPoint x="433" y="222" as="sourcePoint" />
            <mxPoint x="413" y="192" as="targetPoint" />
          </mxGeometry>
        </mxCell>
        <mxCell id="i_z6lznoOYtikd_7tGOS-11" value="" style="endArrow=none;html=1;rounded=0;entryX=0.5;entryY=1;entryDx=0;entryDy=0;exitX=1;exitY=0;exitDx=0;exitDy=0;" parent="1" source="i_z6lznoOYtikd_7tGOS-8" target="i_z6lznoOYtikd_7tGOS-12" edge="1">
          <mxGeometry width="50" height="50" relative="1" as="geometry">
            <mxPoint x="533" y="152" as="sourcePoint" />
            <mxPoint x="463" y="132" as="targetPoint" />
          </mxGeometry>
        </mxCell>
        <mxCell id="i_z6lznoOYtikd_7tGOS-12" value="Last name" style="ellipse;whiteSpace=wrap;html=1;" parent="1" vertex="1">
          <mxGeometry x="533" y="102" width="80" height="30" as="geometry" />
        </mxCell>
        <mxCell id="i_z6lznoOYtikd_7tGOS-14" value="First name" style="ellipse;whiteSpace=wrap;html=1;" parent="1" vertex="1">
          <mxGeometry x="433" y="102" width="80" height="30" as="geometry" />
        </mxCell>
        <mxCell id="i_z6lznoOYtikd_7tGOS-15" value="" style="endArrow=none;html=1;rounded=0;entryX=0.5;entryY=1;entryDx=0;entryDy=0;exitX=0;exitY=0;exitDx=0;exitDy=0;" parent="1" source="i_z6lznoOYtikd_7tGOS-8" target="i_z6lznoOYtikd_7tGOS-14" edge="1">
          <mxGeometry width="50" height="50" relative="1" as="geometry">
            <mxPoint x="441" y="152" as="sourcePoint" />
            <mxPoint x="363" y="128" as="targetPoint" />
          </mxGeometry>
        </mxCell>
        <mxCell id="i_z6lznoOYtikd_7tGOS-16" value="sex" style="ellipse;whiteSpace=wrap;html=1;" parent="1" vertex="1">
          <mxGeometry x="283" y="227" width="80" height="30" as="geometry" />
        </mxCell>
        <mxCell id="i_z6lznoOYtikd_7tGOS-17" value="" style="endArrow=none;html=1;rounded=0;entryX=1;entryY=0.5;entryDx=0;entryDy=0;exitX=0;exitY=0.5;exitDx=0;exitDy=0;" parent="1" source="i_z6lznoOYtikd_7tGOS-6" target="i_z6lznoOYtikd_7tGOS-16" edge="1">
          <mxGeometry width="50" height="50" relative="1" as="geometry">
            <mxPoint x="383" y="242" as="sourcePoint" />
            <mxPoint x="223" y="262" as="targetPoint" />
          </mxGeometry>
        </mxCell>
        <mxCell id="i_z6lznoOYtikd_7tGOS-18" value="&lt;font style=&quot;font-size: 12px;&quot;&gt;Phone&lt;/font&gt;" style="html=1;overflow=block;blockSpacing=1;whiteSpace=wrap;ellipse;fontSize=16.7;fontFamily=Roboto;fontColor=#3d4752;align=center;spacing=3.8;strokeOpacity=100;fillOpacity=100;rounded=1;absoluteArcSize=1;arcSize=7.5;fillColor=#ffffff;strokeWidth=0.8;lucidId=z8Jo-k4NWJHX;" parent="1" vertex="1">
          <mxGeometry x="303" y="282" width="80" height="30" as="geometry" />
        </mxCell>
        <mxCell id="i_z6lznoOYtikd_7tGOS-19" value="" style="endArrow=none;html=1;rounded=0;entryX=1;entryY=0.5;entryDx=0;entryDy=0;exitX=0.25;exitY=1;exitDx=0;exitDy=0;" parent="1" source="i_z6lznoOYtikd_7tGOS-6" target="i_z6lznoOYtikd_7tGOS-18" edge="1">
          <mxGeometry width="50" height="50" relative="1" as="geometry">
            <mxPoint x="403" y="252" as="sourcePoint" />
            <mxPoint x="373" y="252" as="targetPoint" />
          </mxGeometry>
        </mxCell>
        <mxCell id="i_z6lznoOYtikd_7tGOS-20" value="&lt;font style=&quot;font-size: 18px;&quot;&gt;Student&lt;/font&gt;" style="html=1;overflow=block;blockSpacing=1;whiteSpace=wrap;fontSize=12;fontFamily=Roboto;fontColor=#3d4752;align=center;spacing=3.8;strokeOpacity=100;fillOpacity=100;rounded=1;absoluteArcSize=1;arcSize=7.5;fillColor=#ffffff;strokeWidth=0.8;lucidId=z8JoEd9-YmlO;" parent="1" vertex="1">
          <mxGeometry x="1337" y="830" width="129" height="69" as="geometry" />
        </mxCell>
        <mxCell id="i_z6lznoOYtikd_7tGOS-21" value="Student_id" style="html=1;overflow=block;blockSpacing=1;whiteSpace=wrap;ellipse;fontSize=12;fontFamily=Roboto;fontColor=#3d4752;fontStyle=4;align=center;spacing=3.8;strokeOpacity=100;fillOpacity=100;rounded=1;absoluteArcSize=1;arcSize=7.5;fillColor=#ffffff;strokeWidth=0.8;lucidId=z8JoCJyMGK~t;" parent="1" vertex="1">
          <mxGeometry x="1523" y="804" width="99" height="40" as="geometry" />
        </mxCell>
        <mxCell id="i_z6lznoOYtikd_7tGOS-22" value="sex" style="html=1;overflow=block;blockSpacing=1;whiteSpace=wrap;ellipse;fontSize=16.7;fontFamily=Roboto;fontColor=#3d4752;align=center;spacing=3.8;strokeOpacity=100;fillOpacity=100;rounded=1;absoluteArcSize=1;arcSize=7.5;fillColor=#ffffff;strokeWidth=0.8;lucidId=z8JoteWYO.Ik;" parent="1" vertex="1">
          <mxGeometry x="1200" y="924" width="99" height="40" as="geometry" />
        </mxCell>
        <mxCell id="i_z6lznoOYtikd_7tGOS-23" value="Email" style="html=1;overflow=block;blockSpacing=1;whiteSpace=wrap;ellipse;fontSize=12;fontFamily=Roboto;fontColor=#3d4752;align=center;spacing=3.8;strokeOpacity=100;fillOpacity=100;rounded=1;absoluteArcSize=1;arcSize=7.5;fillColor=#ffffff;strokeWidth=0.8;lucidId=z8Jo22FM75JE;" parent="1" vertex="1">
          <mxGeometry x="1523" y="852.5" width="99" height="40" as="geometry" />
        </mxCell>
        <mxCell id="i_z6lznoOYtikd_7tGOS-24" value="Last name" style="html=1;overflow=block;blockSpacing=1;whiteSpace=wrap;ellipse;fontSize=12;fontFamily=Roboto;fontColor=#3d4752;align=center;spacing=3.8;strokeOpacity=100;fillOpacity=100;rounded=1;absoluteArcSize=1;arcSize=7.5;fillColor=#ffffff;strokeWidth=0.8;lucidId=z8JovfZtf-X.;" parent="1" vertex="1">
          <mxGeometry x="1512" y="984" width="99" height="40" as="geometry" />
        </mxCell>
        <mxCell id="i_z6lznoOYtikd_7tGOS-25" value="First name" style="html=1;overflow=block;blockSpacing=1;whiteSpace=wrap;ellipse;fontSize=12;fontFamily=Roboto;fontColor=#3d4752;align=center;spacing=3.8;strokeOpacity=100;fillOpacity=100;rounded=1;absoluteArcSize=1;arcSize=7.5;fillColor=#ffffff;strokeWidth=0.8;lucidId=z8JoeJ7rZD8_;" parent="1" vertex="1">
          <mxGeometry x="1352" y="984" width="99" height="40" as="geometry" />
        </mxCell>
        <mxCell id="i_z6lznoOYtikd_7tGOS-26" value="Full name" style="html=1;overflow=block;blockSpacing=1;whiteSpace=wrap;ellipse;fontSize=12;fontFamily=Roboto;fontColor=#3d4752;align=center;spacing=3.8;strokeOpacity=100;fillOpacity=100;rounded=1;absoluteArcSize=1;arcSize=7.5;fillColor=#ffffff;strokeWidth=0.8;lucidId=z8Johrm2VvJX;" parent="1" vertex="1">
          <mxGeometry x="1433" y="941" width="99" height="40" as="geometry" />
        </mxCell>
        <mxCell id="i_z6lznoOYtikd_7tGOS-31" value="Phone" style="html=1;overflow=block;blockSpacing=1;whiteSpace=wrap;ellipse;fontSize=12;fontFamily=Roboto;fontColor=#3d4752;align=center;spacing=3.8;strokeOpacity=100;fillOpacity=100;rounded=1;absoluteArcSize=1;arcSize=7.5;fillColor=#ffffff;strokeWidth=0.8;lucidId=z8Jo_kVTW3VQ;" parent="1" vertex="1">
          <mxGeometry x="1245" y="969" width="99" height="40" as="geometry" />
        </mxCell>
        <mxCell id="i_z6lznoOYtikd_7tGOS-35" value="" style="endArrow=none;html=1;rounded=0;entryX=1;entryY=0;entryDx=0;entryDy=0;exitX=0;exitY=0.75;exitDx=0;exitDy=0;fontSize=12;" parent="1" source="i_z6lznoOYtikd_7tGOS-20" target="i_z6lznoOYtikd_7tGOS-22" edge="1">
          <mxGeometry width="50" height="50" relative="1" as="geometry">
            <mxPoint x="1296" y="816" as="sourcePoint" />
            <mxPoint x="1284" y="864" as="targetPoint" />
          </mxGeometry>
        </mxCell>
        <mxCell id="i_z6lznoOYtikd_7tGOS-37" value="" style="endArrow=none;html=1;rounded=0;entryX=1;entryY=0;entryDx=0;entryDy=0;exitX=0.25;exitY=1;exitDx=0;exitDy=0;fontSize=12;" parent="1" source="i_z6lznoOYtikd_7tGOS-20" target="i_z6lznoOYtikd_7tGOS-31" edge="1">
          <mxGeometry width="50" height="50" relative="1" as="geometry">
            <mxPoint x="1349" y="894" as="sourcePoint" />
            <mxPoint x="1296" y="942" as="targetPoint" />
          </mxGeometry>
        </mxCell>
        <mxCell id="i_z6lznoOYtikd_7tGOS-38" value="" style="endArrow=none;html=1;rounded=0;entryX=0.5;entryY=0;entryDx=0;entryDy=0;exitX=0.75;exitY=1;exitDx=0;exitDy=0;fontSize=12;" parent="1" source="i_z6lznoOYtikd_7tGOS-20" target="i_z6lznoOYtikd_7tGOS-26" edge="1">
          <mxGeometry width="50" height="50" relative="1" as="geometry">
            <mxPoint x="1381" y="911" as="sourcePoint" />
            <mxPoint x="1330" y="981" as="targetPoint" />
          </mxGeometry>
        </mxCell>
        <mxCell id="i_z6lznoOYtikd_7tGOS-39" value="" style="endArrow=none;html=1;rounded=0;entryX=1;entryY=0;entryDx=0;entryDy=0;exitX=0;exitY=1;exitDx=0;exitDy=0;fontSize=12;" parent="1" source="i_z6lznoOYtikd_7tGOS-26" target="i_z6lznoOYtikd_7tGOS-25" edge="1">
          <mxGeometry width="50" height="50" relative="1" as="geometry">
            <mxPoint x="1446" y="911" as="sourcePoint" />
            <mxPoint x="1495" y="953" as="targetPoint" />
          </mxGeometry>
        </mxCell>
        <mxCell id="i_z6lznoOYtikd_7tGOS-40" value="" style="endArrow=none;html=1;rounded=0;entryX=0;entryY=0;entryDx=0;entryDy=0;exitX=1;exitY=1;exitDx=0;exitDy=0;fontSize=12;" parent="1" source="i_z6lznoOYtikd_7tGOS-26" target="i_z6lznoOYtikd_7tGOS-24" edge="1">
          <mxGeometry width="50" height="50" relative="1" as="geometry">
            <mxPoint x="1460" y="987" as="sourcePoint" />
            <mxPoint x="1448" y="1017" as="targetPoint" />
          </mxGeometry>
        </mxCell>
        <mxCell id="i_z6lznoOYtikd_7tGOS-41" value="" style="endArrow=none;html=1;rounded=0;entryX=0;entryY=0.5;entryDx=0;entryDy=0;exitX=1;exitY=0.5;exitDx=0;exitDy=0;fontSize=12;" parent="1" source="i_z6lznoOYtikd_7tGOS-20" target="i_z6lznoOYtikd_7tGOS-23" edge="1">
          <mxGeometry width="50" height="50" relative="1" as="geometry">
            <mxPoint x="1446" y="911" as="sourcePoint" />
            <mxPoint x="1495" y="953" as="targetPoint" />
          </mxGeometry>
        </mxCell>
        <mxCell id="i_z6lznoOYtikd_7tGOS-42" value="" style="endArrow=none;html=1;rounded=0;entryX=0;entryY=0.5;entryDx=0;entryDy=0;exitX=1;exitY=0.25;exitDx=0;exitDy=0;fontSize=12;" parent="1" source="i_z6lznoOYtikd_7tGOS-20" target="i_z6lznoOYtikd_7tGOS-21" edge="1">
          <mxGeometry width="50" height="50" relative="1" as="geometry">
            <mxPoint x="1478" y="894" as="sourcePoint" />
            <mxPoint x="1565" y="926" as="targetPoint" />
          </mxGeometry>
        </mxCell>
        <mxCell id="i_z6lznoOYtikd_7tGOS-43" value="" style="endArrow=none;html=1;rounded=0;entryX=0;entryY=0.5;entryDx=0;entryDy=0;exitX=1;exitY=0.25;exitDx=0;exitDy=0;fontSize=12;" parent="1" source="i_z6lznoOYtikd_7tGOS-6" target="i_z6lznoOYtikd_7tGOS-44" edge="1">
          <mxGeometry width="50" height="50" relative="1" as="geometry">
            <mxPoint x="761" y="382" as="sourcePoint" />
            <mxPoint x="790" y="453" as="targetPoint" />
          </mxGeometry>
        </mxCell>
        <mxCell id="i_z6lznoOYtikd_7tGOS-44" value="Email" style="html=1;overflow=block;blockSpacing=1;whiteSpace=wrap;ellipse;fontSize=12;fontFamily=Roboto;fontColor=#3d4752;align=center;spacing=3.8;strokeOpacity=100;fillOpacity=100;rounded=1;absoluteArcSize=1;arcSize=7.5;fillColor=#ffffff;strokeWidth=0.8;lucidId=z8Jo22FM75JE;" parent="1" vertex="1">
          <mxGeometry x="553" y="172" width="76" height="34" as="geometry" />
        </mxCell>
        <mxCell id="i_z6lznoOYtikd_7tGOS-45" value="&lt;font style=&quot;font-size: 21px;&quot;&gt;Task&lt;/font&gt;" style="html=1;overflow=block;blockSpacing=1;whiteSpace=wrap;fontSize=16.7;fontFamily=Roboto;fontColor=#3d4752;align=center;spacing=3.8;strokeOpacity=100;fillOpacity=100;rounded=1;absoluteArcSize=1;arcSize=7.5;fillColor=#ffffff;strokeWidth=0.8;lucidId=z8JohozBBHBn;" parent="1" vertex="1">
          <mxGeometry x="770" y="504" width="129" height="69" as="geometry" />
        </mxCell>
        <mxCell id="i_z6lznoOYtikd_7tGOS-46" value="Task_id" style="html=1;overflow=block;blockSpacing=1;whiteSpace=wrap;ellipse;fontSize=16.7;fontFamily=Roboto;fontColor=#3d4752;fontStyle=4;align=center;spacing=3.8;strokeOpacity=100;fillOpacity=100;rounded=1;absoluteArcSize=1;arcSize=7.5;fillColor=#ffffff;strokeWidth=0.8;lucidId=z8JogII6C4fO;" parent="1" vertex="1">
          <mxGeometry x="695" y="422" width="99" height="40" as="geometry" />
        </mxCell>
        <mxCell id="i_z6lznoOYtikd_7tGOS-47" value="Task_name" style="html=1;overflow=block;blockSpacing=1;whiteSpace=wrap;ellipse;fontSize=15;fontFamily=Roboto;fontColor=#3d4752;align=center;spacing=3.8;strokeOpacity=100;fillOpacity=100;rounded=1;absoluteArcSize=1;arcSize=7.5;fillColor=#ffffff;strokeWidth=0.8;lucidId=z8JoUT3BMebs;" parent="1" vertex="1">
          <mxGeometry x="899" y="422" width="99" height="40" as="geometry" />
        </mxCell>
        <mxCell id="i_z6lznoOYtikd_7tGOS-50" value="Task_max_grade" style="html=1;overflow=block;blockSpacing=1;whiteSpace=wrap;ellipse;fontSize=15;fontFamily=Roboto;fontColor=#3d4752;align=center;spacing=3.8;strokeOpacity=100;fillOpacity=100;rounded=1;absoluteArcSize=1;arcSize=7.5;fillColor=#ffffff;strokeWidth=0.8;lucidId=z8JojGHYJCK3;" parent="1" vertex="1">
          <mxGeometry x="663" y="612" width="117" height="40" as="geometry" />
        </mxCell>
        <mxCell id="i_z6lznoOYtikd_7tGOS-52" value="Due date" style="html=1;overflow=block;blockSpacing=1;whiteSpace=wrap;ellipse;fontSize=15;fontFamily=Roboto;fontColor=#3d4752;align=center;spacing=3.8;strokeOpacity=100;fillOpacity=100;rounded=1;absoluteArcSize=1;arcSize=7.5;fillColor=#ffffff;strokeWidth=0.8;lucidId=z8JohxosX_.u;" parent="1" vertex="1">
          <mxGeometry x="888" y="624" width="99" height="43" as="geometry" />
        </mxCell>
        <mxCell id="i_z6lznoOYtikd_7tGOS-55" value="description" style="html=1;overflow=block;blockSpacing=1;whiteSpace=wrap;ellipse;fontSize=15;fontFamily=Roboto;fontColor=#3d4752;align=center;spacing=3.8;strokeOpacity=100;fillOpacity=100;rounded=1;absoluteArcSize=1;arcSize=7.5;fillColor=#ffffff;strokeWidth=0.8;lucidId=z8JoMihmaZ54;" parent="1" vertex="1">
          <mxGeometry x="780" y="641" width="99" height="40" as="geometry" />
        </mxCell>
        <mxCell id="i_z6lznoOYtikd_7tGOS-56" value="Start date" style="html=1;overflow=block;blockSpacing=1;whiteSpace=wrap;ellipse;fontSize=15;fontFamily=Roboto;fontColor=#3d4752;align=center;spacing=3.8;strokeOpacity=100;fillOpacity=100;rounded=1;absoluteArcSize=1;arcSize=7.5;fillColor=#ffffff;strokeWidth=0.8;lucidId=z8Jo9Yp90vg3;" parent="1" vertex="1">
          <mxGeometry x="984" y="522.5" width="99" height="43" as="geometry" />
        </mxCell>
        <mxCell id="i_z6lznoOYtikd_7tGOS-58" value="" style="endArrow=none;html=1;rounded=0;entryX=1;entryY=1;entryDx=0;entryDy=0;exitX=0.25;exitY=0;exitDx=0;exitDy=0;fontSize=12;" parent="1" source="i_z6lznoOYtikd_7tGOS-45" target="i_z6lznoOYtikd_7tGOS-46" edge="1">
          <mxGeometry width="50" height="50" relative="1" as="geometry">
            <mxPoint x="1246" y="680" as="sourcePoint" />
            <mxPoint x="1303" y="657" as="targetPoint" />
          </mxGeometry>
        </mxCell>
        <mxCell id="i_z6lznoOYtikd_7tGOS-59" value="" style="endArrow=none;html=1;rounded=0;entryX=0;entryY=1;entryDx=0;entryDy=0;exitX=0.75;exitY=0;exitDx=0;exitDy=0;fontSize=12;" parent="1" source="i_z6lznoOYtikd_7tGOS-45" target="i_z6lznoOYtikd_7tGOS-47" edge="1">
          <mxGeometry width="50" height="50" relative="1" as="geometry">
            <mxPoint x="814" y="516" as="sourcePoint" />
            <mxPoint x="791" y="468" as="targetPoint" />
          </mxGeometry>
        </mxCell>
        <mxCell id="i_z6lznoOYtikd_7tGOS-60" value="" style="endArrow=none;html=1;rounded=0;entryX=0;entryY=0;entryDx=0;entryDy=0;exitX=1;exitY=0.75;exitDx=0;exitDy=0;fontSize=12;" parent="1" source="i_z6lznoOYtikd_7tGOS-45" target="i_z6lznoOYtikd_7tGOS-56" edge="1">
          <mxGeometry width="50" height="50" relative="1" as="geometry">
            <mxPoint x="879" y="516" as="sourcePoint" />
            <mxPoint x="926" y="468" as="targetPoint" />
          </mxGeometry>
        </mxCell>
        <mxCell id="i_z6lznoOYtikd_7tGOS-61" value="" style="endArrow=none;html=1;rounded=0;entryX=1;entryY=0;entryDx=0;entryDy=0;exitX=0.25;exitY=1;exitDx=0;exitDy=0;fontSize=12;" parent="1" source="i_z6lznoOYtikd_7tGOS-45" target="i_z6lznoOYtikd_7tGOS-50" edge="1">
          <mxGeometry width="50" height="50" relative="1" as="geometry">
            <mxPoint x="879" y="585" as="sourcePoint" />
            <mxPoint x="926" y="626" as="targetPoint" />
          </mxGeometry>
        </mxCell>
        <mxCell id="i_z6lznoOYtikd_7tGOS-62" value="" style="endArrow=none;html=1;rounded=0;entryX=0.5;entryY=0;entryDx=0;entryDy=0;exitX=0.5;exitY=1;exitDx=0;exitDy=0;fontSize=12;" parent="1" source="i_z6lznoOYtikd_7tGOS-45" target="i_z6lznoOYtikd_7tGOS-55" edge="1">
          <mxGeometry width="50" height="50" relative="1" as="geometry">
            <mxPoint x="814" y="585" as="sourcePoint" />
            <mxPoint x="764" y="619" as="targetPoint" />
          </mxGeometry>
        </mxCell>
        <mxCell id="i_z6lznoOYtikd_7tGOS-63" value="" style="endArrow=none;html=1;rounded=0;entryX=0.5;entryY=0;entryDx=0;entryDy=0;exitX=0.75;exitY=1;exitDx=0;exitDy=0;fontSize=12;" parent="1" source="i_z6lznoOYtikd_7tGOS-45" target="i_z6lznoOYtikd_7tGOS-52" edge="1">
          <mxGeometry width="50" height="50" relative="1" as="geometry">
            <mxPoint x="847" y="585" as="sourcePoint" />
            <mxPoint x="800" y="669" as="targetPoint" />
          </mxGeometry>
        </mxCell>
        <mxCell id="i_z6lznoOYtikd_7tGOS-64" value="Feedback" style="html=1;overflow=block;blockSpacing=1;whiteSpace=wrap;fontSize=16.7;fontFamily=Roboto;fontColor=#3d4752;align=center;spacing=3.8;strokeOpacity=100;fillOpacity=100;rounded=1;absoluteArcSize=1;arcSize=7.5;fillColor=#ffffff;strokeWidth=0.8;lucidId=z8JohozBBHBn;" parent="1" vertex="1">
          <mxGeometry x="282" y="826.5" width="129" height="69" as="geometry" />
        </mxCell>
        <mxCell id="i_z6lznoOYtikd_7tGOS-65" value="Feedback_id" style="html=1;overflow=block;blockSpacing=1;whiteSpace=wrap;ellipse;fontSize=16.7;fontFamily=Roboto;fontColor=#3d4752;fontStyle=4;align=center;spacing=3.8;strokeOpacity=100;fillOpacity=100;rounded=1;absoluteArcSize=1;arcSize=7.5;fillColor=#ffffff;strokeWidth=0.8;lucidId=z8JogII6C4fO;" parent="1" vertex="1">
          <mxGeometry x="207" y="744.5" width="99" height="40" as="geometry" />
        </mxCell>
        <mxCell id="i_z6lznoOYtikd_7tGOS-69" value="student_id" style="html=1;overflow=block;blockSpacing=1;whiteSpace=wrap;ellipse;fontSize=15;fontFamily=Roboto;fontColor=#3d4752;align=center;spacing=3.8;strokeOpacity=100;fillOpacity=100;rounded=1;absoluteArcSize=1;arcSize=7.5;fillColor=#ffffff;strokeWidth=0.8;lucidId=z8JoMihmaZ54;" parent="1" vertex="1">
          <mxGeometry x="423" y="941" width="99" height="40" as="geometry" />
        </mxCell>
        <mxCell id="i_z6lznoOYtikd_7tGOS-70" value="date" style="html=1;overflow=block;blockSpacing=1;whiteSpace=wrap;ellipse;fontSize=15;fontFamily=Roboto;fontColor=#3d4752;align=center;spacing=3.8;strokeOpacity=100;fillOpacity=100;rounded=1;absoluteArcSize=1;arcSize=7.5;fillColor=#ffffff;strokeWidth=0.8;lucidId=z8Jo9Yp90vg3;" parent="1" vertex="1">
          <mxGeometry x="120" y="854.5" width="108" height="46.5" as="geometry" />
        </mxCell>
        <mxCell id="i_z6lznoOYtikd_7tGOS-71" value="" style="endArrow=none;html=1;rounded=0;entryX=1;entryY=1;entryDx=0;entryDy=0;exitX=0.25;exitY=0;exitDx=0;exitDy=0;fontSize=12;" parent="1" source="i_z6lznoOYtikd_7tGOS-64" target="i_z6lznoOYtikd_7tGOS-65" edge="1">
          <mxGeometry width="50" height="50" relative="1" as="geometry">
            <mxPoint x="758" y="1002.5" as="sourcePoint" />
            <mxPoint x="815" y="979.5" as="targetPoint" />
          </mxGeometry>
        </mxCell>
        <mxCell id="i_z6lznoOYtikd_7tGOS-73" value="" style="endArrow=none;html=1;rounded=0;entryX=1;entryY=0.5;entryDx=0;entryDy=0;exitX=0;exitY=0.5;exitDx=0;exitDy=0;fontSize=12;" parent="1" source="i_z6lznoOYtikd_7tGOS-64" target="i_z6lznoOYtikd_7tGOS-70" edge="1">
          <mxGeometry width="50" height="50" relative="1" as="geometry">
            <mxPoint x="391" y="838.5" as="sourcePoint" />
            <mxPoint x="438" y="790.5" as="targetPoint" />
          </mxGeometry>
        </mxCell>
        <mxCell id="i_z6lznoOYtikd_7tGOS-75" value="" style="endArrow=none;html=1;rounded=0;exitX=0.75;exitY=1;exitDx=0;exitDy=0;fontSize=12;entryX=0;entryY=0;entryDx=0;entryDy=0;" parent="1" source="i_z6lznoOYtikd_7tGOS-64" target="i_z6lznoOYtikd_7tGOS-69" edge="1">
          <mxGeometry width="50" height="50" relative="1" as="geometry">
            <mxPoint x="326" y="907.5" as="sourcePoint" />
            <mxPoint x="336" y="972.5" as="targetPoint" />
          </mxGeometry>
        </mxCell>
        <mxCell id="i_z6lznoOYtikd_7tGOS-78" value="" style="endArrow=none;html=1;rounded=0;entryX=0.5;entryY=1;entryDx=0;entryDy=0;exitX=0.5;exitY=0;exitDx=0;exitDy=0;fontSize=12;" parent="1" source="i_z6lznoOYtikd_7tGOS-45" target="i_z6lznoOYtikd_7tGOS-79" edge="1">
          <mxGeometry width="50" height="50" relative="1" as="geometry">
            <mxPoint x="767" y="468" as="sourcePoint" />
            <mxPoint x="691" y="432" as="targetPoint" />
          </mxGeometry>
        </mxCell>
        <mxCell id="i_z6lznoOYtikd_7tGOS-79" value="hasMultiableTries" style="html=1;overflow=block;blockSpacing=1;whiteSpace=wrap;ellipse;fontSize=15;fontFamily=Roboto;fontColor=#3d4752;align=center;spacing=3.8;strokeOpacity=100;fillOpacity=100;rounded=1;absoluteArcSize=1;arcSize=7.5;fillColor=#ffffff;strokeWidth=0.8;lucidId=z8JoUT3BMebs;" parent="1" vertex="1">
          <mxGeometry x="794" y="398" width="120" height="40" as="geometry" />
        </mxCell>
        <mxCell id="i_z6lznoOYtikd_7tGOS-80" value="" style="endArrow=none;html=1;rounded=0;entryX=0.5;entryY=0;entryDx=0;entryDy=0;exitX=0.25;exitY=1;exitDx=0;exitDy=0;fontSize=12;" parent="1" source="i_z6lznoOYtikd_7tGOS-6" target="i_z6lznoOYtikd_7tGOS-81" edge="1">
          <mxGeometry width="50" height="50" relative="1" as="geometry">
            <mxPoint x="425" y="294.75" as="sourcePoint" />
            <mxPoint x="710" y="600.25" as="targetPoint" />
          </mxGeometry>
        </mxCell>
        <mxCell id="i_z6lznoOYtikd_7tGOS-81" value="Password" style="html=1;overflow=block;blockSpacing=1;whiteSpace=wrap;ellipse;fontSize=12;fontFamily=Roboto;fontColor=#3d4752;align=center;spacing=3.8;strokeOpacity=100;fillOpacity=100;rounded=1;absoluteArcSize=1;arcSize=7.5;fillColor=#ffffff;strokeWidth=0.8;lucidId=z8Jo22FM75JE;" parent="1" vertex="1">
          <mxGeometry x="373" y="312" width="76" height="34" as="geometry" />
        </mxCell>
        <mxCell id="i_z6lznoOYtikd_7tGOS-82" value="" style="endArrow=none;html=1;rounded=0;entryX=1;entryY=0.5;entryDx=0;entryDy=0;exitX=0;exitY=0.25;exitDx=0;exitDy=0;fontSize=12;" parent="1" source="i_z6lznoOYtikd_7tGOS-20" target="i_z6lznoOYtikd_7tGOS-83" edge="1">
          <mxGeometry width="50" height="50" relative="1" as="geometry">
            <mxPoint x="1238" y="830" as="sourcePoint" />
            <mxPoint x="1525" y="1158.25" as="targetPoint" />
          </mxGeometry>
        </mxCell>
        <mxCell id="i_z6lznoOYtikd_7tGOS-83" value="Password" style="html=1;overflow=block;blockSpacing=1;whiteSpace=wrap;ellipse;fontSize=12;fontFamily=Roboto;fontColor=#3d4752;align=center;spacing=3.8;strokeOpacity=100;fillOpacity=100;rounded=1;absoluteArcSize=1;arcSize=7.5;fillColor=#ffffff;strokeWidth=0.8;lucidId=z8Jo22FM75JE;" parent="1" vertex="1">
          <mxGeometry x="1188" y="815" width="76" height="34" as="geometry" />
        </mxCell>
        <mxCell id="i_z6lznoOYtikd_7tGOS-84" value="&lt;span data-lucid-content=&quot;{&amp;quot;t&amp;quot;:&amp;quot;Instructor&amp;quot;,&amp;quot;m&amp;quot;:[{&amp;quot;s&amp;quot;:0,&amp;quot;n&amp;quot;:&amp;quot;a&amp;quot;,&amp;quot;v&amp;quot;:&amp;quot;center&amp;quot;},{&amp;quot;s&amp;quot;:0,&amp;quot;n&amp;quot;:&amp;quot;f&amp;quot;,&amp;quot;v&amp;quot;:&amp;quot;Roboto&amp;quot;,&amp;quot;e&amp;quot;:10},{&amp;quot;s&amp;quot;:0,&amp;quot;n&amp;quot;:&amp;quot;fc&amp;quot;,&amp;quot;v&amp;quot;:&amp;quot;Regular&amp;quot;,&amp;quot;e&amp;quot;:10},{&amp;quot;s&amp;quot;:0,&amp;quot;n&amp;quot;:&amp;quot;fid&amp;quot;,&amp;quot;v&amp;quot;:80337,&amp;quot;e&amp;quot;:10},{&amp;quot;s&amp;quot;:0,&amp;quot;n&amp;quot;:&amp;quot;s&amp;quot;,&amp;quot;v&amp;quot;:22.222222222222225,&amp;quot;e&amp;quot;:10},{&amp;quot;s&amp;quot;:0,&amp;quot;n&amp;quot;:&amp;quot;c&amp;quot;,&amp;quot;v&amp;quot;:&amp;quot;#3d4752ff&amp;quot;,&amp;quot;e&amp;quot;:10}]}&quot; data-lucid-type=&quot;application/vnd.lucid.text&quot;&gt;&lt;span style=&quot;color:#3d4752;font-size:16.66666666666667px;&quot;&gt;Admin&lt;/span&gt;&lt;/span&gt;" style="rounded=0;whiteSpace=wrap;html=1;" parent="1" vertex="1">
          <mxGeometry x="1676" y="224" width="120" height="60" as="geometry" />
        </mxCell>
        <mxCell id="i_z6lznoOYtikd_7tGOS-85" value="&lt;font color=&quot;#3d4752&quot;&gt;&lt;span style=&quot;font-size: 16.6667px;&quot;&gt;&lt;u&gt;&amp;nbsp; &amp;nbsp;id&amp;nbsp;&amp;nbsp;&lt;/u&gt;&lt;/span&gt;&lt;/font&gt;" style="ellipse;whiteSpace=wrap;html=1;" parent="1" vertex="1">
          <mxGeometry x="1626" y="174" width="60" height="30" as="geometry" />
        </mxCell>
        <mxCell id="i_z6lznoOYtikd_7tGOS-86" value="Full name" style="ellipse;whiteSpace=wrap;html=1;" parent="1" vertex="1">
          <mxGeometry x="1827.5" y="252" width="80" height="30" as="geometry" />
        </mxCell>
        <mxCell id="i_z6lznoOYtikd_7tGOS-87" value="" style="endArrow=none;html=1;rounded=0;entryX=1;entryY=1;entryDx=0;entryDy=0;exitX=0.25;exitY=0;exitDx=0;exitDy=0;" parent="1" source="i_z6lznoOYtikd_7tGOS-84" target="i_z6lznoOYtikd_7tGOS-85" edge="1">
          <mxGeometry width="50" height="50" relative="1" as="geometry">
            <mxPoint x="1846" y="329" as="sourcePoint" />
            <mxPoint x="1896" y="279" as="targetPoint" />
          </mxGeometry>
        </mxCell>
        <mxCell id="i_z6lznoOYtikd_7tGOS-88" value="" style="endArrow=none;html=1;rounded=0;entryX=0;entryY=0.5;entryDx=0;entryDy=0;exitX=1;exitY=0.5;exitDx=0;exitDy=0;" parent="1" source="i_z6lznoOYtikd_7tGOS-84" target="i_z6lznoOYtikd_7tGOS-86" edge="1">
          <mxGeometry width="50" height="50" relative="1" as="geometry">
            <mxPoint x="1856" y="261" as="sourcePoint" />
            <mxPoint x="1786" y="241" as="targetPoint" />
          </mxGeometry>
        </mxCell>
        <mxCell id="i_z6lznoOYtikd_7tGOS-89" value="" style="endArrow=none;html=1;rounded=0;entryX=0;entryY=0;entryDx=0;entryDy=0;exitX=1;exitY=1;exitDx=0;exitDy=0;" parent="1" source="i_z6lznoOYtikd_7tGOS-86" target="i_z6lznoOYtikd_7tGOS-90" edge="1">
          <mxGeometry width="50" height="50" relative="1" as="geometry">
            <mxPoint x="1906" y="201" as="sourcePoint" />
            <mxPoint x="1836" y="181" as="targetPoint" />
          </mxGeometry>
        </mxCell>
        <mxCell id="i_z6lznoOYtikd_7tGOS-90" value="Last name" style="ellipse;whiteSpace=wrap;html=1;" parent="1" vertex="1">
          <mxGeometry x="1907.5" y="289" width="80" height="30" as="geometry" />
        </mxCell>
        <mxCell id="i_z6lznoOYtikd_7tGOS-91" value="First name" style="ellipse;whiteSpace=wrap;html=1;" parent="1" vertex="1">
          <mxGeometry x="1924" y="232.5" width="80" height="30" as="geometry" />
        </mxCell>
        <mxCell id="i_z6lznoOYtikd_7tGOS-92" value="" style="endArrow=none;html=1;rounded=0;entryX=0;entryY=0.5;entryDx=0;entryDy=0;exitX=1;exitY=0;exitDx=0;exitDy=0;" parent="1" source="i_z6lznoOYtikd_7tGOS-86" target="i_z6lznoOYtikd_7tGOS-91" edge="1">
          <mxGeometry width="50" height="50" relative="1" as="geometry">
            <mxPoint x="1814" y="201" as="sourcePoint" />
            <mxPoint x="1736" y="177" as="targetPoint" />
          </mxGeometry>
        </mxCell>
        <mxCell id="i_z6lznoOYtikd_7tGOS-93" value="sex" style="ellipse;whiteSpace=wrap;html=1;" parent="1" vertex="1">
          <mxGeometry x="1754" y="144" width="80" height="30" as="geometry" />
        </mxCell>
        <mxCell id="i_z6lznoOYtikd_7tGOS-94" value="" style="endArrow=none;html=1;rounded=0;entryX=0.5;entryY=1;entryDx=0;entryDy=0;exitX=0.75;exitY=0;exitDx=0;exitDy=0;" parent="1" source="i_z6lznoOYtikd_7tGOS-84" target="i_z6lznoOYtikd_7tGOS-93" edge="1">
          <mxGeometry width="50" height="50" relative="1" as="geometry">
            <mxPoint x="1676" y="259" as="sourcePoint" />
            <mxPoint x="1516" y="279" as="targetPoint" />
          </mxGeometry>
        </mxCell>
        <mxCell id="i_z6lznoOYtikd_7tGOS-95" value="&lt;font style=&quot;font-size: 12px;&quot;&gt;Phone&lt;/font&gt;" style="html=1;overflow=block;blockSpacing=1;whiteSpace=wrap;ellipse;fontSize=16.7;fontFamily=Roboto;fontColor=#3d4752;align=center;spacing=3.8;strokeOpacity=100;fillOpacity=100;rounded=1;absoluteArcSize=1;arcSize=7.5;fillColor=#ffffff;strokeWidth=0.8;lucidId=z8Jo-k4NWJHX;" parent="1" vertex="1">
          <mxGeometry x="1596" y="299" width="80" height="30" as="geometry" />
        </mxCell>
        <mxCell id="i_z6lznoOYtikd_7tGOS-96" value="" style="endArrow=none;html=1;rounded=0;entryX=1;entryY=0.5;entryDx=0;entryDy=0;exitX=0.25;exitY=1;exitDx=0;exitDy=0;" parent="1" source="i_z6lznoOYtikd_7tGOS-84" target="i_z6lznoOYtikd_7tGOS-95" edge="1">
          <mxGeometry width="50" height="50" relative="1" as="geometry">
            <mxPoint x="1696" y="269" as="sourcePoint" />
            <mxPoint x="1666" y="269" as="targetPoint" />
          </mxGeometry>
        </mxCell>
        <mxCell id="i_z6lznoOYtikd_7tGOS-97" value="" style="endArrow=none;html=1;rounded=0;entryX=0;entryY=0;entryDx=0;entryDy=0;exitX=1;exitY=1;exitDx=0;exitDy=0;fontSize=12;" parent="1" source="i_z6lznoOYtikd_7tGOS-84" target="i_z6lznoOYtikd_7tGOS-98" edge="1">
          <mxGeometry width="50" height="50" relative="1" as="geometry">
            <mxPoint x="2054" y="399" as="sourcePoint" />
            <mxPoint x="2083" y="470" as="targetPoint" />
          </mxGeometry>
        </mxCell>
        <mxCell id="i_z6lznoOYtikd_7tGOS-98" value="Email" style="html=1;overflow=block;blockSpacing=1;whiteSpace=wrap;ellipse;fontSize=12;fontFamily=Roboto;fontColor=#3d4752;align=center;spacing=3.8;strokeOpacity=100;fillOpacity=100;rounded=1;absoluteArcSize=1;arcSize=7.5;fillColor=#ffffff;strokeWidth=0.8;lucidId=z8Jo22FM75JE;" parent="1" vertex="1">
          <mxGeometry x="1816" y="312" width="76" height="34" as="geometry" />
        </mxCell>
        <mxCell id="i_z6lznoOYtikd_7tGOS-99" value="" style="endArrow=none;html=1;rounded=0;entryX=0.5;entryY=0;entryDx=0;entryDy=0;exitX=0.75;exitY=1;exitDx=0;exitDy=0;fontSize=12;" parent="1" source="i_z6lznoOYtikd_7tGOS-84" target="i_z6lznoOYtikd_7tGOS-100" edge="1">
          <mxGeometry width="50" height="50" relative="1" as="geometry">
            <mxPoint x="1718" y="311.75" as="sourcePoint" />
            <mxPoint x="2003" y="617.25" as="targetPoint" />
          </mxGeometry>
        </mxCell>
        <mxCell id="i_z6lznoOYtikd_7tGOS-100" value="Password" style="html=1;overflow=block;blockSpacing=1;whiteSpace=wrap;ellipse;fontSize=12;fontFamily=Roboto;fontColor=#3d4752;align=center;spacing=3.8;strokeOpacity=100;fillOpacity=100;rounded=1;absoluteArcSize=1;arcSize=7.5;fillColor=#ffffff;strokeWidth=0.8;lucidId=z8Jo22FM75JE;" parent="1" vertex="1">
          <mxGeometry x="1742" y="346" width="76" height="34" as="geometry" />
        </mxCell>
        <mxCell id="i_z6lznoOYtikd_7tGOS-103" value="Answer_url" style="html=1;overflow=block;blockSpacing=1;whiteSpace=wrap;ellipse;fontSize=15;fontFamily=Roboto;fontColor=#3d4752;align=center;spacing=3.8;strokeOpacity=100;fillOpacity=100;rounded=1;absoluteArcSize=1;arcSize=7.5;fillColor=#ffffff;strokeWidth=0.8;lucidId=z8Jo9Yp90vg3;" parent="1" vertex="1">
          <mxGeometry x="463.5" y="787" width="99" height="43" as="geometry" />
        </mxCell>
        <mxCell id="i_z6lznoOYtikd_7tGOS-104" value="" style="endArrow=none;html=1;rounded=0;entryX=1;entryY=0.5;entryDx=0;entryDy=0;exitX=0;exitY=0.5;exitDx=0;exitDy=0;fontSize=12;" parent="1" source="i_z6lznoOYtikd_7tGOS-103" target="i_z6lznoOYtikd_7tGOS-64" edge="1">
          <mxGeometry width="50" height="50" relative="1" as="geometry">
            <mxPoint x="391" y="907.5" as="sourcePoint" />
            <mxPoint x="437" y="949.5" as="targetPoint" />
          </mxGeometry>
        </mxCell>
        <mxCell id="i_z6lznoOYtikd_7tGOS-107" value="" style="endArrow=none;html=1;rounded=0;entryX=0;entryY=0.5;entryDx=0;entryDy=0;exitX=1;exitY=0.75;exitDx=0;exitDy=0;fontSize=12;" parent="1" source="i_z6lznoOYtikd_7tGOS-20" target="i_z6lznoOYtikd_7tGOS-108" edge="1">
          <mxGeometry width="50" height="50" relative="1" as="geometry">
            <mxPoint x="1483.5" y="904.5" as="sourcePoint" />
            <mxPoint x="1512.5" y="993" as="targetPoint" />
          </mxGeometry>
        </mxCell>
        <mxCell id="i_z6lznoOYtikd_7tGOS-108" value="Profile_picture" style="html=1;overflow=block;blockSpacing=1;whiteSpace=wrap;ellipse;fontSize=12;fontFamily=Roboto;fontColor=#3d4752;align=center;spacing=3.8;strokeOpacity=100;fillOpacity=100;rounded=1;absoluteArcSize=1;arcSize=7.5;fillColor=#ffffff;strokeWidth=0.8;lucidId=z8Jo22FM75JE;" parent="1" vertex="1">
          <mxGeometry x="1523" y="901" width="99" height="40" as="geometry" />
        </mxCell>
        <mxCell id="i_z6lznoOYtikd_7tGOS-109" value="Profile_picture" style="html=1;overflow=block;blockSpacing=1;whiteSpace=wrap;ellipse;fontSize=12;fontFamily=Roboto;fontColor=#3d4752;align=center;spacing=3.8;strokeOpacity=100;fillOpacity=100;rounded=1;absoluteArcSize=1;arcSize=7.5;fillColor=#ffffff;strokeWidth=0.8;lucidId=z8Jo22FM75JE;" parent="1" vertex="1">
          <mxGeometry x="264" y="159" width="99" height="40" as="geometry" />
        </mxCell>
        <mxCell id="i_z6lznoOYtikd_7tGOS-110" value="" style="endArrow=none;html=1;rounded=0;entryX=1;entryY=1;entryDx=0;entryDy=0;exitX=0;exitY=0;exitDx=0;exitDy=0;fontSize=12;" parent="1" source="i_z6lznoOYtikd_7tGOS-6" target="i_z6lznoOYtikd_7tGOS-109" edge="1">
          <mxGeometry width="50" height="50" relative="1" as="geometry">
            <mxPoint x="701" y="212.5" as="sourcePoint" />
            <mxPoint x="747.5" y="324" as="targetPoint" />
          </mxGeometry>
        </mxCell>
        <mxCell id="i_z6lznoOYtikd_7tGOS-111" value="" style="endArrow=none;html=1;rounded=0;entryX=1;entryY=0;entryDx=0;entryDy=0;exitX=0.5;exitY=1;exitDx=0;exitDy=0;fontSize=12;" parent="1" source="i_z6lznoOYtikd_7tGOS-84" target="i_z6lznoOYtikd_7tGOS-112" edge="1">
          <mxGeometry width="50" height="50" relative="1" as="geometry">
            <mxPoint x="1693" y="416" as="sourcePoint" />
            <mxPoint x="2047.5" y="528" as="targetPoint" />
          </mxGeometry>
        </mxCell>
        <mxCell id="i_z6lznoOYtikd_7tGOS-112" value="Profile_picture" style="html=1;overflow=block;blockSpacing=1;whiteSpace=wrap;ellipse;fontSize=12;fontFamily=Roboto;fontColor=#3d4752;align=center;spacing=3.8;strokeOpacity=100;fillOpacity=100;rounded=1;absoluteArcSize=1;arcSize=7.5;fillColor=#ffffff;strokeWidth=0.8;lucidId=z8Jo22FM75JE;" parent="1" vertex="1">
          <mxGeometry x="1626" y="340" width="99" height="40" as="geometry" />
        </mxCell>
        <mxCell id="1FQnQQ2jj5cXQvcZ0Y-U-15" value="&lt;font size=&quot;1&quot; style=&quot;&quot;&gt;&lt;b style=&quot;font-size: 16px;&quot;&gt;Has&lt;/b&gt;&lt;/font&gt;" style="rhombus;whiteSpace=wrap;html=1;" parent="1" vertex="1">
          <mxGeometry x="1032" y="402" width="132" height="80" as="geometry" />
        </mxCell>
        <mxCell id="1FQnQQ2jj5cXQvcZ0Y-U-16" value="" style="endArrow=none;html=1;rounded=0;entryX=0;entryY=0.5;entryDx=0;entryDy=0;exitX=1;exitY=0.5;exitDx=0;exitDy=0;" parent="1" source="i_z6lznoOYtikd_7tGOS-45" target="1FQnQQ2jj5cXQvcZ0Y-U-15" edge="1">
          <mxGeometry width="50" height="50" relative="1" as="geometry">
            <mxPoint x="936" y="540" as="sourcePoint" />
            <mxPoint x="938" y="480" as="targetPoint" />
          </mxGeometry>
        </mxCell>
        <mxCell id="1FQnQQ2jj5cXQvcZ0Y-U-17" value="" style="endArrow=none;html=1;rounded=0;entryX=0.5;entryY=1;entryDx=0;entryDy=0;exitX=1;exitY=0.5;exitDx=0;exitDy=0;" parent="1" source="1FQnQQ2jj5cXQvcZ0Y-U-15" target="i_z6lznoOYtikd_7tGOS-1" edge="1">
          <mxGeometry width="50" height="50" relative="1" as="geometry">
            <mxPoint x="911" y="551" as="sourcePoint" />
            <mxPoint x="1044" y="454" as="targetPoint" />
          </mxGeometry>
        </mxCell>
        <mxCell id="1FQnQQ2jj5cXQvcZ0Y-U-19" value="" style="endArrow=none;html=1;rounded=0;entryX=0;entryY=0.5;entryDx=0;entryDy=0;exitX=1;exitY=0.5;exitDx=0;exitDy=0;" parent="1" source="i_z6lznoOYtikd_7tGOS-6" target="1FQnQQ2jj5cXQvcZ0Y-U-18" edge="1">
          <mxGeometry width="50" height="50" relative="1" as="geometry">
            <mxPoint x="911" y="551" as="sourcePoint" />
            <mxPoint x="1044" y="454" as="targetPoint" />
          </mxGeometry>
        </mxCell>
        <mxCell id="1FQnQQ2jj5cXQvcZ0Y-U-20" value="" style="endArrow=none;html=1;rounded=0;entryX=0;entryY=0.5;entryDx=0;entryDy=0;exitX=1;exitY=0.5;exitDx=0;exitDy=0;" parent="1" source="1FQnQQ2jj5cXQvcZ0Y-U-18" target="i_z6lznoOYtikd_7tGOS-1" edge="1">
          <mxGeometry width="50" height="50" relative="1" as="geometry">
            <mxPoint x="352" y="262" as="sourcePoint" />
            <mxPoint x="722" y="266" as="targetPoint" />
          </mxGeometry>
        </mxCell>
        <mxCell id="1FQnQQ2jj5cXQvcZ0Y-U-21" value="&lt;span style=&quot;font-size: 16px;&quot;&gt;&lt;b&gt;take&lt;/b&gt;&lt;/span&gt;" style="rhombus;whiteSpace=wrap;html=1;" parent="1" vertex="1">
          <mxGeometry x="1272" y="504" width="132" height="80" as="geometry" />
        </mxCell>
        <mxCell id="1FQnQQ2jj5cXQvcZ0Y-U-22" value="" style="endArrow=none;html=1;rounded=0;entryX=0.75;entryY=1;entryDx=0;entryDy=0;exitX=0;exitY=0.5;exitDx=0;exitDy=0;" parent="1" source="1FQnQQ2jj5cXQvcZ0Y-U-21" target="i_z6lznoOYtikd_7tGOS-1" edge="1">
          <mxGeometry width="50" height="50" relative="1" as="geometry">
            <mxPoint x="1176" y="454" as="sourcePoint" />
            <mxPoint x="1256" y="304" as="targetPoint" />
          </mxGeometry>
        </mxCell>
        <mxCell id="1FQnQQ2jj5cXQvcZ0Y-U-23" value="" style="endArrow=none;html=1;rounded=0;entryX=1;entryY=0.5;entryDx=0;entryDy=0;exitX=0.5;exitY=0;exitDx=0;exitDy=0;" parent="1" source="i_z6lznoOYtikd_7tGOS-20" target="1FQnQQ2jj5cXQvcZ0Y-U-21" edge="1">
          <mxGeometry width="50" height="50" relative="1" as="geometry">
            <mxPoint x="1284" y="556" as="sourcePoint" />
            <mxPoint x="1286" y="304" as="targetPoint" />
          </mxGeometry>
        </mxCell>
        <mxCell id="1FQnQQ2jj5cXQvcZ0Y-U-24" value="&lt;span style=&quot;font-size: 16px;&quot;&gt;&lt;b&gt;preforme&lt;/b&gt;&lt;/span&gt;" style="rhombus;whiteSpace=wrap;html=1;" parent="1" vertex="1">
          <mxGeometry x="1140" y="622.5" width="132" height="80" as="geometry" />
        </mxCell>
        <mxCell id="1FQnQQ2jj5cXQvcZ0Y-U-25" value="" style="endArrow=none;html=1;rounded=0;entryX=1;entryY=0.5;entryDx=0;entryDy=0;exitX=0.25;exitY=0;exitDx=0;exitDy=0;" parent="1" source="i_z6lznoOYtikd_7tGOS-20" target="1FQnQQ2jj5cXQvcZ0Y-U-24" edge="1">
          <mxGeometry width="50" height="50" relative="1" as="geometry">
            <mxPoint x="1414" y="820" as="sourcePoint" />
            <mxPoint x="1416" y="556" as="targetPoint" />
          </mxGeometry>
        </mxCell>
        <mxCell id="1FQnQQ2jj5cXQvcZ0Y-U-26" value="" style="endArrow=none;html=1;rounded=0;entryX=1;entryY=1;entryDx=0;entryDy=0;exitX=0;exitY=0.5;exitDx=0;exitDy=0;" parent="1" source="1FQnQQ2jj5cXQvcZ0Y-U-24" target="i_z6lznoOYtikd_7tGOS-45" edge="1">
          <mxGeometry width="50" height="50" relative="1" as="geometry">
            <mxPoint x="1381" y="820" as="sourcePoint" />
            <mxPoint x="1284" y="675" as="targetPoint" />
          </mxGeometry>
        </mxCell>
        <mxCell id="1FQnQQ2jj5cXQvcZ0Y-U-27" value="&lt;font size=&quot;1&quot; style=&quot;&quot;&gt;&lt;b style=&quot;font-size: 16px;&quot;&gt;provide&lt;/b&gt;&lt;/font&gt;" style="rhombus;whiteSpace=wrap;html=1;" parent="1" vertex="1">
          <mxGeometry x="1416.5" y="214" width="132" height="80" as="geometry" />
        </mxCell>
        <mxCell id="1FQnQQ2jj5cXQvcZ0Y-U-28" value="" style="endArrow=none;html=1;rounded=0;entryX=0;entryY=0.5;entryDx=0;entryDy=0;exitX=1;exitY=0.5;exitDx=0;exitDy=0;" parent="1" source="i_z6lznoOYtikd_7tGOS-1" target="1FQnQQ2jj5cXQvcZ0Y-U-27" edge="1">
          <mxGeometry width="50" height="50" relative="1" as="geometry">
            <mxPoint x="854" y="266" as="sourcePoint" />
            <mxPoint x="1196" y="274" as="targetPoint" />
          </mxGeometry>
        </mxCell>
        <mxCell id="1FQnQQ2jj5cXQvcZ0Y-U-29" value="" style="endArrow=none;html=1;rounded=0;entryX=0;entryY=0.5;entryDx=0;entryDy=0;exitX=1;exitY=0.5;exitDx=0;exitDy=0;" parent="1" source="1FQnQQ2jj5cXQvcZ0Y-U-27" target="i_z6lznoOYtikd_7tGOS-84" edge="1">
          <mxGeometry width="50" height="50" relative="1" as="geometry">
            <mxPoint x="1316" y="274" as="sourcePoint" />
            <mxPoint x="1428" y="274" as="targetPoint" />
          </mxGeometry>
        </mxCell>
        <mxCell id="1FQnQQ2jj5cXQvcZ0Y-U-31" value="" style="endArrow=none;html=1;rounded=0;entryX=0;entryY=0.5;entryDx=0;entryDy=0;exitX=1;exitY=0.5;exitDx=0;exitDy=0;" parent="1" source="1FQnQQ2jj5cXQvcZ0Y-U-33" target="i_z6lznoOYtikd_7tGOS-45" edge="1">
          <mxGeometry width="50" height="50" relative="1" as="geometry">
            <mxPoint x="605" y="641" as="sourcePoint" />
            <mxPoint x="1284" y="675" as="targetPoint" />
          </mxGeometry>
        </mxCell>
        <mxCell id="1FQnQQ2jj5cXQvcZ0Y-U-32" value="" style="endArrow=none;html=1;rounded=0;entryX=0.75;entryY=0;entryDx=0;entryDy=0;exitX=0;exitY=0.5;exitDx=0;exitDy=0;" parent="1" source="1FQnQQ2jj5cXQvcZ0Y-U-33" target="i_z6lznoOYtikd_7tGOS-64" edge="1">
          <mxGeometry width="50" height="50" relative="1" as="geometry">
            <mxPoint x="473" y="641" as="sourcePoint" />
            <mxPoint x="782" y="551" as="targetPoint" />
          </mxGeometry>
        </mxCell>
        <mxCell id="1FQnQQ2jj5cXQvcZ0Y-U-33" value="&lt;font size=&quot;1&quot; style=&quot;&quot;&gt;&lt;b style=&quot;font-size: 16px;&quot;&gt;Generate&lt;/b&gt;&lt;/font&gt;" style="rhombus;whiteSpace=wrap;html=1;" parent="1" vertex="1">
          <mxGeometry x="473" y="605.5" width="132" height="80" as="geometry" />
        </mxCell>
        <mxCell id="1FQnQQ2jj5cXQvcZ0Y-U-34" value="" style="endArrow=none;html=1;rounded=0;entryX=0.941;entryY=-0.029;entryDx=0;entryDy=0;exitX=0.107;exitY=0.642;exitDx=0;exitDy=0;exitPerimeter=0;entryPerimeter=0;" parent="1" source="1FQnQQ2jj5cXQvcZ0Y-U-33" target="i_z6lznoOYtikd_7tGOS-64" edge="1">
          <mxGeometry width="50" height="50" relative="1" as="geometry">
            <mxPoint x="485" y="658" as="sourcePoint" />
            <mxPoint x="391" y="839" as="targetPoint" />
          </mxGeometry>
        </mxCell>
        <mxCell id="1FQnQQ2jj5cXQvcZ0Y-U-35" value="" style="endArrow=none;html=1;rounded=0;exitX=0.048;exitY=0.567;exitDx=0;exitDy=0;exitPerimeter=0;entryX=1.007;entryY=0.651;entryDx=0;entryDy=0;entryPerimeter=0;" parent="1" source="1FQnQQ2jj5cXQvcZ0Y-U-15" target="i_z6lznoOYtikd_7tGOS-45" edge="1">
          <mxGeometry width="50" height="50" relative="1" as="geometry">
            <mxPoint x="499" y="669" as="sourcePoint" />
            <mxPoint x="936" y="540" as="targetPoint" />
          </mxGeometry>
        </mxCell>
        <mxCell id="1FQnQQ2jj5cXQvcZ0Y-U-36" value="&lt;span style=&quot;font-size: 16px;&quot;&gt;&lt;b&gt;belong&lt;/b&gt;&lt;/span&gt;" style="rhombus;whiteSpace=wrap;html=1;" parent="1" vertex="1">
          <mxGeometry x="782" y="843.5" width="132" height="80" as="geometry" />
        </mxCell>
        <mxCell id="1FQnQQ2jj5cXQvcZ0Y-U-37" value="" style="endArrow=none;html=1;rounded=0;entryX=1;entryY=0.5;entryDx=0;entryDy=0;exitX=0;exitY=0.75;exitDx=0;exitDy=0;" parent="1" source="i_z6lznoOYtikd_7tGOS-20" target="1FQnQQ2jj5cXQvcZ0Y-U-36" edge="1">
          <mxGeometry width="50" height="50" relative="1" as="geometry">
            <mxPoint x="1152" y="675" as="sourcePoint" />
            <mxPoint x="911" y="585" as="targetPoint" />
          </mxGeometry>
        </mxCell>
        <mxCell id="1FQnQQ2jj5cXQvcZ0Y-U-38" value="" style="endArrow=none;html=1;rounded=0;entryX=0.062;entryY=0.419;entryDx=0;entryDy=0;exitX=1;exitY=0.75;exitDx=0;exitDy=0;entryPerimeter=0;" parent="1" source="i_z6lznoOYtikd_7tGOS-64" target="1FQnQQ2jj5cXQvcZ0Y-U-36" edge="1">
          <mxGeometry width="50" height="50" relative="1" as="geometry">
            <mxPoint x="1349" y="871" as="sourcePoint" />
            <mxPoint x="926" y="896" as="targetPoint" />
          </mxGeometry>
        </mxCell>
        <mxCell id="1FQnQQ2jj5cXQvcZ0Y-U-39" value="" style="endArrow=none;html=1;rounded=0;entryX=0.066;entryY=0.585;entryDx=0;entryDy=0;exitX=1.002;exitY=0.895;exitDx=0;exitDy=0;entryPerimeter=0;exitPerimeter=0;" parent="1" source="i_z6lznoOYtikd_7tGOS-64" target="1FQnQQ2jj5cXQvcZ0Y-U-36" edge="1">
          <mxGeometry width="50" height="50" relative="1" as="geometry">
            <mxPoint x="423" y="890" as="sourcePoint" />
            <mxPoint x="807" y="886" as="targetPoint" />
          </mxGeometry>
        </mxCell>
        <mxCell id="1FQnQQ2jj5cXQvcZ0Y-U-42" value="" style="group" parent="1" vertex="1" connectable="0">
          <mxGeometry x="663" y="214" width="225" height="80" as="geometry" />
        </mxCell>
        <mxCell id="1FQnQQ2jj5cXQvcZ0Y-U-18" value="&lt;font size=&quot;1&quot; style=&quot;&quot;&gt;&lt;b style=&quot;font-size: 16px;&quot;&gt;teach&lt;/b&gt;&lt;/font&gt;" style="rhombus;whiteSpace=wrap;html=1;" parent="1FQnQQ2jj5cXQvcZ0Y-U-42" vertex="1">
          <mxGeometry x="47" width="132" height="80" as="geometry" />
        </mxCell>
        <mxCell id="1FQnQQ2jj5cXQvcZ0Y-U-40" value="&lt;font style=&quot;font-size: 16px;&quot;&gt;&lt;b&gt;1&lt;/b&gt;&lt;/font&gt;" style="text;html=1;align=center;verticalAlign=middle;whiteSpace=wrap;rounded=0;" parent="1FQnQQ2jj5cXQvcZ0Y-U-42" vertex="1">
          <mxGeometry y="8" width="60" height="30" as="geometry" />
        </mxCell>
        <mxCell id="1FQnQQ2jj5cXQvcZ0Y-U-41" value="&lt;span style=&quot;font-size: 16px;&quot;&gt;&lt;b&gt;M&lt;/b&gt;&lt;/span&gt;" style="text;html=1;align=center;verticalAlign=middle;whiteSpace=wrap;rounded=0;" parent="1FQnQQ2jj5cXQvcZ0Y-U-42" vertex="1">
          <mxGeometry x="165" y="8" width="60" height="30" as="geometry" />
        </mxCell>
        <mxCell id="1FQnQQ2jj5cXQvcZ0Y-U-43" value="&lt;span style=&quot;font-size: 16px;&quot;&gt;&lt;b&gt;M&lt;/b&gt;&lt;/span&gt;" style="text;html=1;align=center;verticalAlign=middle;whiteSpace=wrap;rounded=0;" parent="1" vertex="1">
          <mxGeometry x="1371.5" y="224" width="60" height="30" as="geometry" />
        </mxCell>
        <mxCell id="1FQnQQ2jj5cXQvcZ0Y-U-44" value="&lt;span style=&quot;font-size: 16px;&quot;&gt;&lt;b&gt;N&lt;/b&gt;&lt;/span&gt;" style="text;html=1;align=center;verticalAlign=middle;whiteSpace=wrap;rounded=0;" parent="1" vertex="1">
          <mxGeometry x="1531.5" y="224" width="60" height="30" as="geometry" />
        </mxCell>
        <mxCell id="1FQnQQ2jj5cXQvcZ0Y-U-45" value="&lt;span style=&quot;font-size: 16px;&quot;&gt;&lt;b&gt;M&lt;/b&gt;&lt;/span&gt;" style="text;html=1;align=center;verticalAlign=middle;whiteSpace=wrap;rounded=0;" parent="1" vertex="1">
          <mxGeometry x="1224" y="523.5" width="60" height="30" as="geometry" />
        </mxCell>
        <mxCell id="1FQnQQ2jj5cXQvcZ0Y-U-46" value="&lt;span style=&quot;font-size: 16px;&quot;&gt;&lt;b&gt;N&lt;/b&gt;&lt;/span&gt;" style="text;html=1;align=center;verticalAlign=middle;whiteSpace=wrap;rounded=0;" parent="1" vertex="1">
          <mxGeometry x="1391" y="529" width="60" height="30" as="geometry" />
        </mxCell>
        <mxCell id="1FQnQQ2jj5cXQvcZ0Y-U-49" value="&lt;span style=&quot;font-size: 16px;&quot;&gt;&lt;b&gt;M&lt;/b&gt;&lt;/span&gt;" style="text;html=1;align=center;verticalAlign=middle;whiteSpace=wrap;rounded=0;" parent="1" vertex="1">
          <mxGeometry x="1104" y="630.5" width="60" height="30" as="geometry" />
        </mxCell>
        <mxCell id="1FQnQQ2jj5cXQvcZ0Y-U-50" value="&lt;span style=&quot;font-size: 16px;&quot;&gt;&lt;b&gt;N&lt;/b&gt;&lt;/span&gt;" style="text;html=1;align=center;verticalAlign=middle;whiteSpace=wrap;rounded=0;" parent="1" vertex="1">
          <mxGeometry x="1260" y="641" width="60" height="30" as="geometry" />
        </mxCell>
        <mxCell id="1FQnQQ2jj5cXQvcZ0Y-U-51" value="&lt;span style=&quot;font-size: 16px;&quot;&gt;&lt;b&gt;1&lt;/b&gt;&lt;/span&gt;" style="text;html=1;align=center;verticalAlign=middle;whiteSpace=wrap;rounded=0;" parent="1" vertex="1">
          <mxGeometry x="899" y="852.5" width="60" height="30" as="geometry" />
        </mxCell>
        <mxCell id="1FQnQQ2jj5cXQvcZ0Y-U-52" value="&lt;span style=&quot;font-size: 16px;&quot;&gt;&lt;b&gt;M&lt;/b&gt;&lt;/span&gt;" style="text;html=1;align=center;verticalAlign=middle;whiteSpace=wrap;rounded=0;" parent="1" vertex="1">
          <mxGeometry x="745.5" y="849.5" width="60" height="30" as="geometry" />
        </mxCell>
        <mxCell id="1FQnQQ2jj5cXQvcZ0Y-U-53" value="&lt;span style=&quot;font-size: 16px;&quot;&gt;&lt;b&gt;M&lt;/b&gt;&lt;/span&gt;" style="text;html=1;align=center;verticalAlign=middle;whiteSpace=wrap;rounded=0;" parent="1" vertex="1">
          <mxGeometry x="423" y="622.5" width="60" height="30" as="geometry" />
        </mxCell>
        <mxCell id="1FQnQQ2jj5cXQvcZ0Y-U-54" value="&lt;span style=&quot;font-size: 16px;&quot;&gt;&lt;b&gt;1&lt;/b&gt;&lt;/span&gt;" style="text;html=1;align=center;verticalAlign=middle;whiteSpace=wrap;rounded=0;" parent="1" vertex="1">
          <mxGeometry x="576" y="611" width="60" height="30" as="geometry" />
        </mxCell>
        <mxCell id="BE1HY2F1h_qEHTIY4hpc-1" value="&lt;span style=&quot;font-size: 16px;&quot;&gt;&lt;b&gt;M&lt;/b&gt;&lt;/span&gt;" style="text;html=1;align=center;verticalAlign=middle;whiteSpace=wrap;rounded=0;" parent="1" vertex="1">
          <mxGeometry x="987" y="420" width="60" height="30" as="geometry" />
        </mxCell>
        <mxCell id="BE1HY2F1h_qEHTIY4hpc-6" value="&lt;font style=&quot;font-size: 16px;&quot;&gt;&lt;b&gt;1&lt;/b&gt;&lt;/font&gt;" style="text;html=1;align=center;verticalAlign=middle;whiteSpace=wrap;rounded=0;" parent="1" vertex="1">
          <mxGeometry x="1152" y="427" width="60" height="30" as="geometry" />
        </mxCell>
        <mxCell id="WxdLDPh3g0zQtwSKUHG9-1" value="student_grade" style="html=1;overflow=block;blockSpacing=1;whiteSpace=wrap;ellipse;fontSize=15;fontFamily=Roboto;fontColor=#3d4752;align=center;spacing=3.8;strokeOpacity=100;fillOpacity=100;rounded=1;absoluteArcSize=1;arcSize=7.5;fillColor=#ffffff;strokeWidth=0.8;lucidId=z8JojGHYJCK3;" vertex="1" parent="1">
          <mxGeometry x="1032" y="704.5" width="117" height="40" as="geometry" />
        </mxCell>
        <mxCell id="WxdLDPh3g0zQtwSKUHG9-2" value="" style="endArrow=none;html=1;rounded=0;entryX=1;entryY=0;entryDx=0;entryDy=0;exitX=0;exitY=1;exitDx=0;exitDy=0;fontSize=12;" edge="1" parent="1" source="1FQnQQ2jj5cXQvcZ0Y-U-24" target="WxdLDPh3g0zQtwSKUHG9-1">
          <mxGeometry width="50" height="50" relative="1" as="geometry">
            <mxPoint x="814" y="585" as="sourcePoint" />
            <mxPoint x="775" y="630" as="targetPoint" />
          </mxGeometry>
        </mxCell>
        <mxCell id="WxdLDPh3g0zQtwSKUHG9-3" value="submit_date" style="html=1;overflow=block;blockSpacing=1;whiteSpace=wrap;ellipse;fontSize=15;fontFamily=Roboto;fontColor=#3d4752;align=center;spacing=3.8;strokeOpacity=100;fillOpacity=100;rounded=1;absoluteArcSize=1;arcSize=7.5;fillColor=#ffffff;strokeWidth=0.8;lucidId=z8JojGHYJCK3;" vertex="1" parent="1">
          <mxGeometry x="1182" y="732" width="117" height="40" as="geometry" />
        </mxCell>
        <mxCell id="WxdLDPh3g0zQtwSKUHG9-4" value="" style="endArrow=none;html=1;rounded=0;entryX=1;entryY=1;entryDx=0;entryDy=0;fontSize=12;exitX=0.5;exitY=0;exitDx=0;exitDy=0;" edge="1" parent="1" source="WxdLDPh3g0zQtwSKUHG9-3" target="1FQnQQ2jj5cXQvcZ0Y-U-24">
          <mxGeometry width="50" height="50" relative="1" as="geometry">
            <mxPoint x="1236" y="744" as="sourcePoint" />
            <mxPoint x="1143" y="722" as="targetPoint" />
          </mxGeometry>
        </mxCell>
        <mxCell id="WxdLDPh3g0zQtwSKUHG9-5" value="description" style="html=1;overflow=block;blockSpacing=1;whiteSpace=wrap;ellipse;fontSize=15;fontFamily=Roboto;fontColor=#3d4752;align=center;spacing=3.8;strokeOpacity=100;fillOpacity=100;rounded=1;absoluteArcSize=1;arcSize=7.5;fillColor=#ffffff;strokeWidth=0.8;lucidId=z8JoMihmaZ54;" vertex="1" parent="1">
          <mxGeometry x="183" y="941" width="99" height="40" as="geometry" />
        </mxCell>
        <mxCell id="WxdLDPh3g0zQtwSKUHG9-6" value="" style="endArrow=none;html=1;rounded=0;exitX=0.25;exitY=1;exitDx=0;exitDy=0;fontSize=12;entryX=1;entryY=0;entryDx=0;entryDy=0;" edge="1" parent="1" source="i_z6lznoOYtikd_7tGOS-64" target="WxdLDPh3g0zQtwSKUHG9-5">
          <mxGeometry width="50" height="50" relative="1" as="geometry">
            <mxPoint x="359" y="908" as="sourcePoint" />
            <mxPoint x="426" y="981" as="targetPoint" />
          </mxGeometry>
        </mxCell>
        <mxCell id="WxdLDPh3g0zQtwSKUHG9-7" value="instructor_id" style="html=1;overflow=block;blockSpacing=1;whiteSpace=wrap;ellipse;fontSize=15;fontFamily=Roboto;fontColor=#3d4752;align=center;spacing=3.8;strokeOpacity=100;fillOpacity=100;rounded=1;absoluteArcSize=1;arcSize=7.5;fillColor=#ffffff;strokeWidth=0.8;lucidId=z8JoMihmaZ54;" vertex="1" parent="1">
          <mxGeometry x="293.5" y="984" width="99" height="40" as="geometry" />
        </mxCell>
        <mxCell id="WxdLDPh3g0zQtwSKUHG9-8" value="" style="endArrow=none;html=1;rounded=0;exitX=0.5;exitY=1;exitDx=0;exitDy=0;fontSize=12;entryX=0.5;entryY=0;entryDx=0;entryDy=0;" edge="1" parent="1" source="i_z6lznoOYtikd_7tGOS-64" target="WxdLDPh3g0zQtwSKUHG9-7">
          <mxGeometry width="50" height="50" relative="1" as="geometry">
            <mxPoint x="391" y="908" as="sourcePoint" />
            <mxPoint x="450" y="959" as="targetPoint" />
          </mxGeometry>
        </mxCell>
      </root>
    </mxGraphModel>
  </diagram>
  <diagram id="OmIs7IXNGN2jLAhfZ-t7" name="Page-2">
    <mxGraphModel dx="1985" dy="1135" grid="1" gridSize="10" guides="1" tooltips="1" connect="1" arrows="1" fold="1" page="1" pageScale="1" pageWidth="900" pageHeight="1600" math="0" shadow="0">
      <root>
        <mxCell id="0" />
        <mxCell id="1" parent="0" />
        <mxCell id="SAPvgv7C_WiaeEBQx2nU-128" value="" style="group" parent="1" vertex="1" connectable="0">
          <mxGeometry x="80" y="40" width="2580" height="1490" as="geometry" />
        </mxCell>
        <mxCell id="SAPvgv7C_WiaeEBQx2nU-1" value="&lt;font style=&quot;font-size: 29px;&quot;&gt;Course&lt;/font&gt;" style="rounded=0;whiteSpace=wrap;html=1;fontStyle=1;fontSize=29;" parent="SAPvgv7C_WiaeEBQx2nU-128" vertex="1">
          <mxGeometry x="1440.7792207792206" y="197.15835140997834" width="167.53246753246754" height="96.96312364425161" as="geometry" />
        </mxCell>
        <mxCell id="SAPvgv7C_WiaeEBQx2nU-2" value="&lt;u style=&quot;font-size: 21px;&quot;&gt;course_ID&lt;/u&gt;" style="ellipse;whiteSpace=wrap;html=1;fontSize=21;fontStyle=1" parent="SAPvgv7C_WiaeEBQx2nU-128" vertex="1">
          <mxGeometry x="1409.2727272727273" y="113.1236442516269" width="83.76623376623377" height="48.481561822125805" as="geometry" />
        </mxCell>
        <mxCell id="SAPvgv7C_WiaeEBQx2nU-3" value="Course_name" style="ellipse;whiteSpace=wrap;html=1;fontSize=21;fontStyle=1" parent="SAPvgv7C_WiaeEBQx2nU-128" vertex="1">
          <mxGeometry x="1548.8831168831168" y="113.1236442516269" width="111.68831168831169" height="48.481561822125805" as="geometry" />
        </mxCell>
        <mxCell id="SAPvgv7C_WiaeEBQx2nU-4" value="" style="endArrow=none;html=1;rounded=0;entryX=0.5;entryY=1;entryDx=0;entryDy=0;exitX=0.25;exitY=0;exitDx=0;exitDy=0;" parent="SAPvgv7C_WiaeEBQx2nU-128" source="SAPvgv7C_WiaeEBQx2nU-1" target="SAPvgv7C_WiaeEBQx2nU-2" edge="1">
          <mxGeometry width="50" height="50" relative="1" as="geometry">
            <mxPoint x="1658.5714285714282" y="371.6919739696313" as="sourcePoint" />
            <mxPoint x="1728.3766233766232" y="290.8893709327549" as="targetPoint" />
          </mxGeometry>
        </mxCell>
        <mxCell id="SAPvgv7C_WiaeEBQx2nU-5" value="" style="endArrow=none;html=1;rounded=0;entryX=0.5;entryY=1;entryDx=0;entryDy=0;exitX=0.75;exitY=0;exitDx=0;exitDy=0;" parent="SAPvgv7C_WiaeEBQx2nU-128" source="SAPvgv7C_WiaeEBQx2nU-1" target="SAPvgv7C_WiaeEBQx2nU-3" edge="1">
          <mxGeometry width="50" height="50" relative="1" as="geometry">
            <mxPoint x="1491.0389610389611" y="226.2472885032538" as="sourcePoint" />
            <mxPoint x="1463.116883116883" y="177.765726681128" as="targetPoint" />
          </mxGeometry>
        </mxCell>
        <mxCell id="SAPvgv7C_WiaeEBQx2nU-6" value="&lt;span data-lucid-content=&quot;{&amp;quot;t&amp;quot;:&amp;quot;Instructor&amp;quot;,&amp;quot;m&amp;quot;:[{&amp;quot;s&amp;quot;:0,&amp;quot;n&amp;quot;:&amp;quot;a&amp;quot;,&amp;quot;v&amp;quot;:&amp;quot;center&amp;quot;},{&amp;quot;s&amp;quot;:0,&amp;quot;n&amp;quot;:&amp;quot;f&amp;quot;,&amp;quot;v&amp;quot;:&amp;quot;Roboto&amp;quot;,&amp;quot;e&amp;quot;:10},{&amp;quot;s&amp;quot;:0,&amp;quot;n&amp;quot;:&amp;quot;fc&amp;quot;,&amp;quot;v&amp;quot;:&amp;quot;Regular&amp;quot;,&amp;quot;e&amp;quot;:10},{&amp;quot;s&amp;quot;:0,&amp;quot;n&amp;quot;:&amp;quot;fid&amp;quot;,&amp;quot;v&amp;quot;:80337,&amp;quot;e&amp;quot;:10},{&amp;quot;s&amp;quot;:0,&amp;quot;n&amp;quot;:&amp;quot;s&amp;quot;,&amp;quot;v&amp;quot;:22.222222222222225,&amp;quot;e&amp;quot;:10},{&amp;quot;s&amp;quot;:0,&amp;quot;n&amp;quot;:&amp;quot;c&amp;quot;,&amp;quot;v&amp;quot;:&amp;quot;#3d4752ff&amp;quot;,&amp;quot;e&amp;quot;:10}]}&quot; data-lucid-type=&quot;application/vnd.lucid.text&quot; style=&quot;font-size: 29px;&quot;&gt;&lt;span style=&quot;color: rgb(61, 71, 82); font-size: 29px;&quot;&gt;Instructor&lt;/span&gt;&lt;/span&gt;" style="rounded=0;whiteSpace=wrap;html=1;fontStyle=1;fontSize=29;" parent="SAPvgv7C_WiaeEBQx2nU-128" vertex="1">
          <mxGeometry x="330.8766233766234" y="197.15835140997834" width="167.53246753246754" height="96.96312364425161" as="geometry" />
        </mxCell>
        <mxCell id="SAPvgv7C_WiaeEBQx2nU-7" value="&lt;font style=&quot;font-size: 21px;&quot; color=&quot;#3d4752&quot;&gt;&lt;span style=&quot;font-size: 21px;&quot;&gt;&lt;u style=&quot;font-size: 21px;&quot;&gt;&amp;nbsp; &amp;nbsp;id&amp;nbsp;&amp;nbsp;&lt;/u&gt;&lt;/span&gt;&lt;/font&gt;" style="ellipse;whiteSpace=wrap;html=1;fontSize=21;fontStyle=1" parent="SAPvgv7C_WiaeEBQx2nU-128" vertex="1">
          <mxGeometry x="304.9545454545455" y="80.80260303687636" width="83.76623376623377" height="48.481561822125805" as="geometry" />
        </mxCell>
        <mxCell id="SAPvgv7C_WiaeEBQx2nU-8" value="Full name" style="ellipse;whiteSpace=wrap;html=1;fontSize=21;fontStyle=1" parent="SAPvgv7C_WiaeEBQx2nU-128" vertex="1">
          <mxGeometry x="444.564935064935" y="80.80260303687636" width="111.68831168831169" height="48.481561822125805" as="geometry" />
        </mxCell>
        <mxCell id="SAPvgv7C_WiaeEBQx2nU-9" value="" style="endArrow=none;html=1;rounded=0;entryX=0.5;entryY=1;entryDx=0;entryDy=0;" parent="SAPvgv7C_WiaeEBQx2nU-128" source="SAPvgv7C_WiaeEBQx2nU-6" target="SAPvgv7C_WiaeEBQx2nU-7" edge="1">
          <mxGeometry width="50" height="50" relative="1" as="geometry">
            <mxPoint x="554.2532467532468" y="339.3709327548807" as="sourcePoint" />
            <mxPoint x="624.0584415584414" y="258.56832971800435" as="targetPoint" />
          </mxGeometry>
        </mxCell>
        <mxCell id="SAPvgv7C_WiaeEBQx2nU-10" value="" style="endArrow=none;html=1;rounded=0;entryX=0.5;entryY=1;entryDx=0;entryDy=0;exitX=0.75;exitY=0;exitDx=0;exitDy=0;" parent="SAPvgv7C_WiaeEBQx2nU-128" source="SAPvgv7C_WiaeEBQx2nU-6" target="SAPvgv7C_WiaeEBQx2nU-8" edge="1">
          <mxGeometry width="50" height="50" relative="1" as="geometry">
            <mxPoint x="386.7207792207792" y="193.92624728850322" as="sourcePoint" />
            <mxPoint x="358.7987012987013" y="145.44468546637745" as="targetPoint" />
          </mxGeometry>
        </mxCell>
        <mxCell id="SAPvgv7C_WiaeEBQx2nU-11" value="" style="endArrow=none;html=1;rounded=0;entryX=0.5;entryY=1;entryDx=0;entryDy=0;exitX=1;exitY=0;exitDx=0;exitDy=0;" parent="SAPvgv7C_WiaeEBQx2nU-128" source="SAPvgv7C_WiaeEBQx2nU-8" target="SAPvgv7C_WiaeEBQx2nU-12" edge="1">
          <mxGeometry width="50" height="50" relative="1" as="geometry">
            <mxPoint x="526.3311688311687" y="80.80260303687636" as="sourcePoint" />
            <mxPoint x="428.60389610389615" y="48.481561822125805" as="targetPoint" />
          </mxGeometry>
        </mxCell>
        <mxCell id="SAPvgv7C_WiaeEBQx2nU-12" value="Last name" style="ellipse;whiteSpace=wrap;html=1;fontSize=21;fontStyle=1" parent="SAPvgv7C_WiaeEBQx2nU-128" vertex="1">
          <mxGeometry x="528.3311688311687" width="111.68831168831169" height="48.481561822125805" as="geometry" />
        </mxCell>
        <mxCell id="SAPvgv7C_WiaeEBQx2nU-13" value="First name" style="ellipse;whiteSpace=wrap;html=1;fontSize=21;fontStyle=1" parent="SAPvgv7C_WiaeEBQx2nU-128" vertex="1">
          <mxGeometry x="388.7207792207792" width="111.68831168831169" height="48.481561822125805" as="geometry" />
        </mxCell>
        <mxCell id="SAPvgv7C_WiaeEBQx2nU-14" value="" style="endArrow=none;html=1;rounded=0;entryX=0.5;entryY=1;entryDx=0;entryDy=0;exitX=0;exitY=0;exitDx=0;exitDy=0;" parent="SAPvgv7C_WiaeEBQx2nU-128" source="SAPvgv7C_WiaeEBQx2nU-8" target="SAPvgv7C_WiaeEBQx2nU-13" edge="1">
          <mxGeometry width="50" height="50" relative="1" as="geometry">
            <mxPoint x="397.88961038961025" y="80.80260303687636" as="sourcePoint" />
            <mxPoint x="288.99350649350646" y="42.01735357917571" as="targetPoint" />
          </mxGeometry>
        </mxCell>
        <mxCell id="SAPvgv7C_WiaeEBQx2nU-15" value="sex" style="ellipse;whiteSpace=wrap;html=1;fontSize=21;fontStyle=1" parent="SAPvgv7C_WiaeEBQx2nU-128" vertex="1">
          <mxGeometry x="179.30519480519482" y="202.00650759219087" width="111.68831168831169" height="48.481561822125805" as="geometry" />
        </mxCell>
        <mxCell id="SAPvgv7C_WiaeEBQx2nU-16" value="" style="endArrow=none;html=1;rounded=0;entryX=1;entryY=0.5;entryDx=0;entryDy=0;exitX=0;exitY=0.5;exitDx=0;exitDy=0;" parent="SAPvgv7C_WiaeEBQx2nU-128" source="SAPvgv7C_WiaeEBQx2nU-6" target="SAPvgv7C_WiaeEBQx2nU-15" edge="1">
          <mxGeometry width="50" height="50" relative="1" as="geometry">
            <mxPoint x="316.9155844155844" y="226.2472885032538" as="sourcePoint" />
            <mxPoint x="93.53896103896105" y="258.56832971800435" as="targetPoint" />
          </mxGeometry>
        </mxCell>
        <mxCell id="SAPvgv7C_WiaeEBQx2nU-17" value="&lt;font style=&quot;font-size: 21px;&quot;&gt;Phone&lt;/font&gt;" style="html=1;overflow=block;blockSpacing=1;whiteSpace=wrap;ellipse;fontSize=21;fontFamily=Roboto;fontColor=#3d4752;align=center;spacing=3.8;strokeOpacity=100;fillOpacity=100;rounded=1;absoluteArcSize=1;arcSize=7.5;fillColor=#ffffff;strokeWidth=0.8;lucidId=z8Jo-k4NWJHX;fontStyle=1" parent="SAPvgv7C_WiaeEBQx2nU-128" vertex="1">
          <mxGeometry x="207.22727272727272" y="290.8893709327549" width="111.68831168831169" height="48.481561822125805" as="geometry" />
        </mxCell>
        <mxCell id="SAPvgv7C_WiaeEBQx2nU-18" value="" style="endArrow=none;html=1;rounded=0;entryX=1;entryY=0.5;entryDx=0;entryDy=0;exitX=0.25;exitY=1;exitDx=0;exitDy=0;" parent="SAPvgv7C_WiaeEBQx2nU-128" source="SAPvgv7C_WiaeEBQx2nU-6" target="SAPvgv7C_WiaeEBQx2nU-17" edge="1">
          <mxGeometry width="50" height="50" relative="1" as="geometry">
            <mxPoint x="344.83766233766227" y="242.4078091106291" as="sourcePoint" />
            <mxPoint x="302.9545454545455" y="242.4078091106291" as="targetPoint" />
          </mxGeometry>
        </mxCell>
        <mxCell id="SAPvgv7C_WiaeEBQx2nU-19" value="&lt;font style=&quot;font-size: 29px;&quot;&gt;Student&lt;/font&gt;" style="html=1;overflow=block;blockSpacing=1;whiteSpace=wrap;fontSize=29;fontFamily=Roboto;fontColor=#3d4752;align=center;spacing=3.8;strokeOpacity=100;fillOpacity=100;rounded=1;absoluteArcSize=1;arcSize=7.5;fillColor=#ffffff;strokeWidth=0.8;lucidId=z8JoEd9-YmlO;fontStyle=1" parent="SAPvgv7C_WiaeEBQx2nU-128" vertex="1">
          <mxGeometry x="1648.7987012987014" y="1176.4859002169198" width="180.09740259740258" height="111.50759219088938" as="geometry" />
        </mxCell>
        <mxCell id="SAPvgv7C_WiaeEBQx2nU-20" value="Student_id" style="html=1;overflow=block;blockSpacing=1;whiteSpace=wrap;ellipse;fontSize=21;fontFamily=Roboto;fontColor=#3d4752;fontStyle=5;align=center;spacing=3.8;strokeOpacity=100;fillOpacity=100;rounded=1;absoluteArcSize=1;arcSize=7.5;fillColor=#ffffff;strokeWidth=0.8;lucidId=z8JoCJyMGK~t;" parent="SAPvgv7C_WiaeEBQx2nU-128" vertex="1">
          <mxGeometry x="1910.4740259740258" y="1134.4685466377439" width="138.21428571428572" height="64.64208242950109" as="geometry" />
        </mxCell>
        <mxCell id="SAPvgv7C_WiaeEBQx2nU-21" value="sex" style="html=1;overflow=block;blockSpacing=1;whiteSpace=wrap;ellipse;fontSize=21;fontFamily=Roboto;fontColor=#3d4752;align=center;spacing=3.8;strokeOpacity=100;fillOpacity=100;rounded=1;absoluteArcSize=1;arcSize=7.5;fillColor=#ffffff;strokeWidth=0.8;lucidId=z8JoteWYO.Ik;fontStyle=1" parent="SAPvgv7C_WiaeEBQx2nU-128" vertex="1">
          <mxGeometry x="1459.5324675324673" y="1328.3947939262475" width="138.21428571428572" height="64.64208242950109" as="geometry" />
        </mxCell>
        <mxCell id="SAPvgv7C_WiaeEBQx2nU-22" value="Email" style="html=1;overflow=block;blockSpacing=1;whiteSpace=wrap;ellipse;fontSize=21;fontFamily=Roboto;fontColor=#3d4752;align=center;spacing=3.8;strokeOpacity=100;fillOpacity=100;rounded=1;absoluteArcSize=1;arcSize=7.5;fillColor=#ffffff;strokeWidth=0.8;lucidId=z8Jo22FM75JE;fontStyle=1" parent="SAPvgv7C_WiaeEBQx2nU-128" vertex="1">
          <mxGeometry x="1910.4740259740258" y="1212.847071583514" width="138.21428571428572" height="64.64208242950109" as="geometry" />
        </mxCell>
        <mxCell id="SAPvgv7C_WiaeEBQx2nU-23" value="Last name" style="html=1;overflow=block;blockSpacing=1;whiteSpace=wrap;ellipse;fontSize=21;fontFamily=Roboto;fontColor=#3d4752;align=center;spacing=3.8;strokeOpacity=100;fillOpacity=100;rounded=1;absoluteArcSize=1;arcSize=7.5;fillColor=#ffffff;strokeWidth=0.8;lucidId=z8JovfZtf-X.;fontStyle=1" parent="SAPvgv7C_WiaeEBQx2nU-128" vertex="1">
          <mxGeometry x="1895.1168831168832" y="1425.357917570499" width="138.21428571428572" height="64.64208242950109" as="geometry" />
        </mxCell>
        <mxCell id="SAPvgv7C_WiaeEBQx2nU-24" value="First name" style="html=1;overflow=block;blockSpacing=1;whiteSpace=wrap;ellipse;fontSize=21;fontFamily=Roboto;fontColor=#3d4752;align=center;spacing=3.8;strokeOpacity=100;fillOpacity=100;rounded=1;absoluteArcSize=1;arcSize=7.5;fillColor=#ffffff;strokeWidth=0.8;lucidId=z8JoeJ7rZD8_;fontStyle=1" parent="SAPvgv7C_WiaeEBQx2nU-128" vertex="1">
          <mxGeometry x="1671.7402597402597" y="1425.357917570499" width="138.21428571428572" height="64.64208242950109" as="geometry" />
        </mxCell>
        <mxCell id="SAPvgv7C_WiaeEBQx2nU-25" value="Full name" style="html=1;overflow=block;blockSpacing=1;whiteSpace=wrap;ellipse;fontSize=21;fontFamily=Roboto;fontColor=#3d4752;align=center;spacing=3.8;strokeOpacity=100;fillOpacity=100;rounded=1;absoluteArcSize=1;arcSize=7.5;fillColor=#ffffff;strokeWidth=0.8;lucidId=z8Johrm2VvJX;fontStyle=1" parent="SAPvgv7C_WiaeEBQx2nU-128" vertex="1">
          <mxGeometry x="1784.8246753246751" y="1355.8676789587853" width="138.21428571428572" height="64.64208242950109" as="geometry" />
        </mxCell>
        <mxCell id="SAPvgv7C_WiaeEBQx2nU-26" value="Phone" style="html=1;overflow=block;blockSpacing=1;whiteSpace=wrap;ellipse;fontSize=21;fontFamily=Roboto;fontColor=#3d4752;align=center;spacing=3.8;strokeOpacity=100;fillOpacity=100;rounded=1;absoluteArcSize=1;arcSize=7.5;fillColor=#ffffff;strokeWidth=0.8;lucidId=z8Jo_kVTW3VQ;fontStyle=1" parent="SAPvgv7C_WiaeEBQx2nU-128" vertex="1">
          <mxGeometry x="1522.3571428571427" y="1401.117136659436" width="138.21428571428572" height="64.64208242950109" as="geometry" />
        </mxCell>
        <mxCell id="SAPvgv7C_WiaeEBQx2nU-27" value="" style="endArrow=none;html=1;rounded=0;entryX=1;entryY=0;entryDx=0;entryDy=0;exitX=0;exitY=0.75;exitDx=0;exitDy=0;fontSize=12;" parent="SAPvgv7C_WiaeEBQx2nU-128" source="SAPvgv7C_WiaeEBQx2nU-19" target="SAPvgv7C_WiaeEBQx2nU-21" edge="1">
          <mxGeometry width="50" height="50" relative="1" as="geometry">
            <mxPoint x="1591.558441558441" y="1153.8611713665944" as="sourcePoint" />
            <mxPoint x="1574.8051948051948" y="1231.4316702819956" as="targetPoint" />
          </mxGeometry>
        </mxCell>
        <mxCell id="SAPvgv7C_WiaeEBQx2nU-28" value="" style="endArrow=none;html=1;rounded=0;entryX=1;entryY=0;entryDx=0;entryDy=0;exitX=0.25;exitY=1;exitDx=0;exitDy=0;fontSize=12;" parent="SAPvgv7C_WiaeEBQx2nU-128" source="SAPvgv7C_WiaeEBQx2nU-19" target="SAPvgv7C_WiaeEBQx2nU-26" edge="1">
          <mxGeometry width="50" height="50" relative="1" as="geometry">
            <mxPoint x="1665.5519480519476" y="1279.9132321041213" as="sourcePoint" />
            <mxPoint x="1591.558441558441" y="1357.4837310195228" as="targetPoint" />
          </mxGeometry>
        </mxCell>
        <mxCell id="SAPvgv7C_WiaeEBQx2nU-29" value="" style="endArrow=none;html=1;rounded=0;entryX=0.5;entryY=0;entryDx=0;entryDy=0;exitX=0.75;exitY=1;exitDx=0;exitDy=0;fontSize=12;" parent="SAPvgv7C_WiaeEBQx2nU-128" source="SAPvgv7C_WiaeEBQx2nU-19" target="SAPvgv7C_WiaeEBQx2nU-25" edge="1">
          <mxGeometry width="50" height="50" relative="1" as="geometry">
            <mxPoint x="1710.2272727272725" y="1307.3861171366595" as="sourcePoint" />
            <mxPoint x="1639.0259740259742" y="1420.5097613882865" as="targetPoint" />
          </mxGeometry>
        </mxCell>
        <mxCell id="SAPvgv7C_WiaeEBQx2nU-30" value="" style="endArrow=none;html=1;rounded=0;entryX=1;entryY=0;entryDx=0;entryDy=0;exitX=0;exitY=1;exitDx=0;exitDy=0;fontSize=12;" parent="SAPvgv7C_WiaeEBQx2nU-128" source="SAPvgv7C_WiaeEBQx2nU-25" target="SAPvgv7C_WiaeEBQx2nU-24" edge="1">
          <mxGeometry width="50" height="50" relative="1" as="geometry">
            <mxPoint x="1800.9740259740256" y="1307.3861171366595" as="sourcePoint" />
            <mxPoint x="1869.3831168831166" y="1375.2603036876358" as="targetPoint" />
          </mxGeometry>
        </mxCell>
        <mxCell id="SAPvgv7C_WiaeEBQx2nU-31" value="" style="endArrow=none;html=1;rounded=0;entryX=0;entryY=0;entryDx=0;entryDy=0;exitX=1;exitY=1;exitDx=0;exitDy=0;fontSize=12;" parent="SAPvgv7C_WiaeEBQx2nU-128" source="SAPvgv7C_WiaeEBQx2nU-25" target="SAPvgv7C_WiaeEBQx2nU-23" edge="1">
          <mxGeometry width="50" height="50" relative="1" as="geometry">
            <mxPoint x="1820.5194805194803" y="1430.2060737527115" as="sourcePoint" />
            <mxPoint x="1803.7662337662334" y="1478.6876355748373" as="targetPoint" />
          </mxGeometry>
        </mxCell>
        <mxCell id="SAPvgv7C_WiaeEBQx2nU-32" value="" style="endArrow=none;html=1;rounded=0;entryX=0;entryY=0.5;entryDx=0;entryDy=0;exitX=1;exitY=0.5;exitDx=0;exitDy=0;fontSize=12;" parent="SAPvgv7C_WiaeEBQx2nU-128" source="SAPvgv7C_WiaeEBQx2nU-19" target="SAPvgv7C_WiaeEBQx2nU-22" edge="1">
          <mxGeometry width="50" height="50" relative="1" as="geometry">
            <mxPoint x="1800.9740259740256" y="1307.3861171366595" as="sourcePoint" />
            <mxPoint x="1869.3831168831166" y="1375.2603036876358" as="targetPoint" />
          </mxGeometry>
        </mxCell>
        <mxCell id="SAPvgv7C_WiaeEBQx2nU-33" value="" style="endArrow=none;html=1;rounded=0;entryX=0;entryY=0.5;entryDx=0;entryDy=0;exitX=1;exitY=0.25;exitDx=0;exitDy=0;fontSize=12;" parent="SAPvgv7C_WiaeEBQx2nU-128" source="SAPvgv7C_WiaeEBQx2nU-19" target="SAPvgv7C_WiaeEBQx2nU-20" edge="1">
          <mxGeometry width="50" height="50" relative="1" as="geometry">
            <mxPoint x="1845.6493506493507" y="1279.9132321041213" as="sourcePoint" />
            <mxPoint x="1967.1103896103891" y="1331.6268980477225" as="targetPoint" />
          </mxGeometry>
        </mxCell>
        <mxCell id="SAPvgv7C_WiaeEBQx2nU-34" value="" style="endArrow=none;html=1;rounded=0;entryX=0;entryY=0.5;entryDx=0;entryDy=0;exitX=1;exitY=0.25;exitDx=0;exitDy=0;fontSize=12;" parent="SAPvgv7C_WiaeEBQx2nU-128" source="SAPvgv7C_WiaeEBQx2nU-6" target="SAPvgv7C_WiaeEBQx2nU-35" edge="1">
          <mxGeometry width="50" height="50" relative="1" as="geometry">
            <mxPoint x="844.642857142857" y="452.4945770065076" as="sourcePoint" />
            <mxPoint x="885.12987012987" y="567.2342733188719" as="targetPoint" />
          </mxGeometry>
        </mxCell>
        <mxCell id="SAPvgv7C_WiaeEBQx2nU-35" value="Email" style="html=1;overflow=block;blockSpacing=1;whiteSpace=wrap;ellipse;fontSize=21;fontFamily=Roboto;fontColor=#3d4752;align=center;spacing=3.8;strokeOpacity=100;fillOpacity=100;rounded=1;absoluteArcSize=1;arcSize=7.5;fillColor=#ffffff;strokeWidth=0.8;lucidId=z8Jo22FM75JE;fontStyle=1" parent="SAPvgv7C_WiaeEBQx2nU-128" vertex="1">
          <mxGeometry x="556.2532467532468" y="113.1236442516269" width="106.10389610389609" height="54.945770065075926" as="geometry" />
        </mxCell>
        <mxCell id="SAPvgv7C_WiaeEBQx2nU-36" value="&lt;font style=&quot;font-size: 29px;&quot;&gt;Task&lt;/font&gt;" style="html=1;overflow=block;blockSpacing=1;whiteSpace=wrap;fontSize=29;fontFamily=Roboto;fontColor=#3d4752;align=center;spacing=3.8;strokeOpacity=100;fillOpacity=100;rounded=1;absoluteArcSize=1;arcSize=7.5;fillColor=#ffffff;strokeWidth=0.8;lucidId=z8JohozBBHBn;fontStyle=1" parent="SAPvgv7C_WiaeEBQx2nU-128" vertex="1">
          <mxGeometry x="857.2077922077923" y="649.6529284164859" width="180.09740259740258" height="111.50759219088938" as="geometry" />
        </mxCell>
        <mxCell id="SAPvgv7C_WiaeEBQx2nU-37" value="Task_id" style="html=1;overflow=block;blockSpacing=1;whiteSpace=wrap;ellipse;fontSize=21;fontFamily=Roboto;fontColor=#3d4752;fontStyle=5;align=center;spacing=3.8;strokeOpacity=100;fillOpacity=100;rounded=1;absoluteArcSize=1;arcSize=7.5;fillColor=#ffffff;strokeWidth=0.8;lucidId=z8JogII6C4fO;" parent="SAPvgv7C_WiaeEBQx2nU-128" vertex="1">
          <mxGeometry x="754.5000000000001" y="517.1366594360087" width="138.21428571428572" height="64.64208242950109" as="geometry" />
        </mxCell>
        <mxCell id="SAPvgv7C_WiaeEBQx2nU-38" value="Task_name" style="html=1;overflow=block;blockSpacing=1;whiteSpace=wrap;ellipse;fontSize=21;fontFamily=Roboto;fontColor=#3d4752;align=center;spacing=3.8;strokeOpacity=100;fillOpacity=100;rounded=1;absoluteArcSize=1;arcSize=7.5;fillColor=#ffffff;strokeWidth=0.8;lucidId=z8JoUT3BMebs;fontStyle=1" parent="SAPvgv7C_WiaeEBQx2nU-128" vertex="1">
          <mxGeometry x="1039.3051948051946" y="517.1366594360087" width="138.21428571428572" height="64.64208242950109" as="geometry" />
        </mxCell>
        <mxCell id="SAPvgv7C_WiaeEBQx2nU-39" value="Task_final_grade" style="html=1;overflow=block;blockSpacing=1;whiteSpace=wrap;ellipse;fontSize=21;fontFamily=Roboto;fontColor=#3d4752;align=center;spacing=3.8;strokeOpacity=100;fillOpacity=100;rounded=1;absoluteArcSize=1;arcSize=7.5;fillColor=#ffffff;strokeWidth=0.8;lucidId=z8JojGHYJCK3;fontStyle=1" parent="SAPvgv7C_WiaeEBQx2nU-128" vertex="1">
          <mxGeometry x="709.8246753246752" y="824.1865509761387" width="163.34415584415584" height="64.64208242950109" as="geometry" />
        </mxCell>
        <mxCell id="SAPvgv7C_WiaeEBQx2nU-40" value="Due date" style="html=1;overflow=block;blockSpacing=1;whiteSpace=wrap;ellipse;fontSize=21;fontFamily=Roboto;fontColor=#3d4752;align=center;spacing=3.8;strokeOpacity=100;fillOpacity=100;rounded=1;absoluteArcSize=1;arcSize=7.5;fillColor=#ffffff;strokeWidth=0.8;lucidId=z8JohxosX_.u;fontStyle=1" parent="SAPvgv7C_WiaeEBQx2nU-128" vertex="1">
          <mxGeometry x="1023.9480519480519" y="843.5791757049892" width="138.21428571428572" height="69.49023861171366" as="geometry" />
        </mxCell>
        <mxCell id="SAPvgv7C_WiaeEBQx2nU-41" value="description" style="html=1;overflow=block;blockSpacing=1;whiteSpace=wrap;ellipse;fontSize=21;fontFamily=Roboto;fontColor=#3d4752;align=center;spacing=3.8;strokeOpacity=100;fillOpacity=100;rounded=1;absoluteArcSize=1;arcSize=7.5;fillColor=#ffffff;strokeWidth=0.8;lucidId=z8JoMihmaZ54;fontStyle=1" parent="SAPvgv7C_WiaeEBQx2nU-128" vertex="1">
          <mxGeometry x="873.1688311688312" y="871.0520607375271" width="138.21428571428572" height="64.64208242950109" as="geometry" />
        </mxCell>
        <mxCell id="SAPvgv7C_WiaeEBQx2nU-42" value="Start date" style="html=1;overflow=block;blockSpacing=1;whiteSpace=wrap;ellipse;fontSize=21;fontFamily=Roboto;fontColor=#3d4752;align=center;spacing=3.8;strokeOpacity=100;fillOpacity=100;rounded=1;absoluteArcSize=1;arcSize=7.5;fillColor=#ffffff;strokeWidth=0.8;lucidId=z8Jo9Yp90vg3;fontStyle=1" parent="SAPvgv7C_WiaeEBQx2nU-128" vertex="1">
          <mxGeometry x="1157.9740259740258" y="679.5498915401301" width="138.21428571428572" height="69.49023861171366" as="geometry" />
        </mxCell>
        <mxCell id="SAPvgv7C_WiaeEBQx2nU-43" value="" style="endArrow=none;html=1;rounded=0;entryX=1;entryY=1;entryDx=0;entryDy=0;exitX=0.25;exitY=0;exitDx=0;exitDy=0;fontSize=12;" parent="SAPvgv7C_WiaeEBQx2nU-128" source="SAPvgv7C_WiaeEBQx2nU-36" target="SAPvgv7C_WiaeEBQx2nU-37" edge="1">
          <mxGeometry width="50" height="50" relative="1" as="geometry">
            <mxPoint x="1521.7532467532467" y="934.0780911062906" as="sourcePoint" />
            <mxPoint x="1601.3311688311692" y="896.9088937093277" as="targetPoint" />
          </mxGeometry>
        </mxCell>
        <mxCell id="SAPvgv7C_WiaeEBQx2nU-44" value="" style="endArrow=none;html=1;rounded=0;entryX=0;entryY=1;entryDx=0;entryDy=0;exitX=0.75;exitY=0;exitDx=0;exitDy=0;fontSize=12;" parent="SAPvgv7C_WiaeEBQx2nU-128" source="SAPvgv7C_WiaeEBQx2nU-36" target="SAPvgv7C_WiaeEBQx2nU-38" edge="1">
          <mxGeometry width="50" height="50" relative="1" as="geometry">
            <mxPoint x="918.6363636363636" y="669.0455531453362" as="sourcePoint" />
            <mxPoint x="886.5259740259739" y="591.4750542299349" as="targetPoint" />
          </mxGeometry>
        </mxCell>
        <mxCell id="SAPvgv7C_WiaeEBQx2nU-45" value="" style="endArrow=none;html=1;rounded=0;entryX=0;entryY=0;entryDx=0;entryDy=0;exitX=1;exitY=0.75;exitDx=0;exitDy=0;fontSize=12;" parent="SAPvgv7C_WiaeEBQx2nU-128" source="SAPvgv7C_WiaeEBQx2nU-36" target="SAPvgv7C_WiaeEBQx2nU-42" edge="1">
          <mxGeometry width="50" height="50" relative="1" as="geometry">
            <mxPoint x="1009.3831168831169" y="669.0455531453362" as="sourcePoint" />
            <mxPoint x="1074.9999999999998" y="591.4750542299349" as="targetPoint" />
          </mxGeometry>
        </mxCell>
        <mxCell id="SAPvgv7C_WiaeEBQx2nU-46" value="" style="endArrow=none;html=1;rounded=0;entryX=1;entryY=0;entryDx=0;entryDy=0;exitX=0.25;exitY=1;exitDx=0;exitDy=0;fontSize=12;" parent="SAPvgv7C_WiaeEBQx2nU-128" source="SAPvgv7C_WiaeEBQx2nU-36" target="SAPvgv7C_WiaeEBQx2nU-39" edge="1">
          <mxGeometry width="50" height="50" relative="1" as="geometry">
            <mxPoint x="1009.3831168831169" y="780.5531453362256" as="sourcePoint" />
            <mxPoint x="1074.9999999999998" y="846.8112798264642" as="targetPoint" />
          </mxGeometry>
        </mxCell>
        <mxCell id="SAPvgv7C_WiaeEBQx2nU-47" value="" style="endArrow=none;html=1;rounded=0;entryX=0.5;entryY=0;entryDx=0;entryDy=0;exitX=0.5;exitY=1;exitDx=0;exitDy=0;fontSize=12;" parent="SAPvgv7C_WiaeEBQx2nU-128" source="SAPvgv7C_WiaeEBQx2nU-36" target="SAPvgv7C_WiaeEBQx2nU-41" edge="1">
          <mxGeometry width="50" height="50" relative="1" as="geometry">
            <mxPoint x="918.6363636363636" y="780.5531453362256" as="sourcePoint" />
            <mxPoint x="848.8311688311687" y="835.4989154013016" as="targetPoint" />
          </mxGeometry>
        </mxCell>
        <mxCell id="SAPvgv7C_WiaeEBQx2nU-48" value="" style="endArrow=none;html=1;rounded=0;entryX=0.5;entryY=0;entryDx=0;entryDy=0;exitX=0.75;exitY=1;exitDx=0;exitDy=0;fontSize=12;" parent="SAPvgv7C_WiaeEBQx2nU-128" source="SAPvgv7C_WiaeEBQx2nU-36" target="SAPvgv7C_WiaeEBQx2nU-40" edge="1">
          <mxGeometry width="50" height="50" relative="1" as="geometry">
            <mxPoint x="964.7077922077922" y="780.5531453362256" as="sourcePoint" />
            <mxPoint x="899.090909090909" y="916.3015184381778" as="targetPoint" />
          </mxGeometry>
        </mxCell>
        <mxCell id="SAPvgv7C_WiaeEBQx2nU-49" value="Feedback" style="html=1;overflow=block;blockSpacing=1;whiteSpace=wrap;fontSize=29;fontFamily=Roboto;fontColor=#3d4752;align=center;spacing=3.8;strokeOpacity=100;fillOpacity=100;rounded=1;absoluteArcSize=1;arcSize=7.5;fillColor=#ffffff;strokeWidth=0.8;lucidId=z8JohozBBHBn;fontStyle=1" parent="SAPvgv7C_WiaeEBQx2nU-128" vertex="1">
          <mxGeometry x="175.9090909090909" y="1170.8297180043385" width="180.09740259740258" height="111.50759219088938" as="geometry" />
        </mxCell>
        <mxCell id="SAPvgv7C_WiaeEBQx2nU-50" value="Feedback_id" style="html=1;overflow=block;blockSpacing=1;whiteSpace=wrap;ellipse;fontSize=21;fontFamily=Roboto;fontColor=#3d4752;fontStyle=5;align=center;spacing=3.8;strokeOpacity=100;fillOpacity=100;rounded=1;absoluteArcSize=1;arcSize=7.5;fillColor=#ffffff;strokeWidth=0.8;lucidId=z8JogII6C4fO;" parent="SAPvgv7C_WiaeEBQx2nU-128" vertex="1">
          <mxGeometry x="73.20129870129868" y="1038.3134490238613" width="138.21428571428572" height="64.64208242950109" as="geometry" />
        </mxCell>
        <mxCell id="SAPvgv7C_WiaeEBQx2nU-51" value="Task_grade" style="html=1;overflow=block;blockSpacing=1;whiteSpace=wrap;ellipse;fontSize=21;fontFamily=Roboto;fontColor=#3d4752;align=center;spacing=3.8;strokeOpacity=100;fillOpacity=100;rounded=1;absoluteArcSize=1;arcSize=7.5;fillColor=#ffffff;strokeWidth=0.8;lucidId=z8JojGHYJCK3;fontStyle=1" parent="SAPvgv7C_WiaeEBQx2nU-128" vertex="1">
          <mxGeometry x="35.5064935064935" y="1327.5867678958787" width="138.21428571428572" height="64.64208242950109" as="geometry" />
        </mxCell>
        <mxCell id="SAPvgv7C_WiaeEBQx2nU-52" value="description" style="html=1;overflow=block;blockSpacing=1;whiteSpace=wrap;ellipse;fontSize=21;fontFamily=Roboto;fontColor=#3d4752;align=center;spacing=3.8;strokeOpacity=100;fillOpacity=100;rounded=1;absoluteArcSize=1;arcSize=7.5;fillColor=#ffffff;strokeWidth=0.8;lucidId=z8JoMihmaZ54;fontStyle=1" parent="SAPvgv7C_WiaeEBQx2nU-128" vertex="1">
          <mxGeometry x="198.85064935064935" y="1400.3091106290672" width="138.21428571428572" height="64.64208242950109" as="geometry" />
        </mxCell>
        <mxCell id="SAPvgv7C_WiaeEBQx2nU-53" value="date" style="html=1;overflow=block;blockSpacing=1;whiteSpace=wrap;ellipse;fontSize=21;fontFamily=Roboto;fontColor=#3d4752;align=center;spacing=3.8;strokeOpacity=100;fillOpacity=100;rounded=1;absoluteArcSize=1;arcSize=7.5;fillColor=#ffffff;strokeWidth=0.8;lucidId=z8Jo9Yp90vg3;fontStyle=1" parent="SAPvgv7C_WiaeEBQx2nU-128" vertex="1">
          <mxGeometry x="358.00649350649354" y="1338.8991323210414" width="138.21428571428572" height="69.49023861171366" as="geometry" />
        </mxCell>
        <mxCell id="SAPvgv7C_WiaeEBQx2nU-54" value="" style="endArrow=none;html=1;rounded=0;entryX=1;entryY=1;entryDx=0;entryDy=0;exitX=0.25;exitY=0;exitDx=0;exitDy=0;fontSize=12;" parent="SAPvgv7C_WiaeEBQx2nU-128" source="SAPvgv7C_WiaeEBQx2nU-49" target="SAPvgv7C_WiaeEBQx2nU-50" edge="1">
          <mxGeometry width="50" height="50" relative="1" as="geometry">
            <mxPoint x="840.4545454545454" y="1455.2548806941434" as="sourcePoint" />
            <mxPoint x="920.0324675324675" y="1418.0856832971801" as="targetPoint" />
          </mxGeometry>
        </mxCell>
        <mxCell id="SAPvgv7C_WiaeEBQx2nU-55" value="" style="endArrow=none;html=1;rounded=0;entryX=0;entryY=0;entryDx=0;entryDy=0;exitX=0.75;exitY=1;exitDx=0;exitDy=0;fontSize=12;" parent="SAPvgv7C_WiaeEBQx2nU-128" source="SAPvgv7C_WiaeEBQx2nU-49" target="SAPvgv7C_WiaeEBQx2nU-53" edge="1">
          <mxGeometry width="50" height="50" relative="1" as="geometry">
            <mxPoint x="328.0844155844156" y="1190.2223427331887" as="sourcePoint" />
            <mxPoint x="393.7012987012987" y="1112.6518438177877" as="targetPoint" />
          </mxGeometry>
        </mxCell>
        <mxCell id="SAPvgv7C_WiaeEBQx2nU-56" value="" style="endArrow=none;html=1;rounded=0;entryX=1;entryY=0;entryDx=0;entryDy=0;exitX=0.25;exitY=1;exitDx=0;exitDy=0;fontSize=12;" parent="SAPvgv7C_WiaeEBQx2nU-128" source="SAPvgv7C_WiaeEBQx2nU-49" target="SAPvgv7C_WiaeEBQx2nU-51" edge="1">
          <mxGeometry width="50" height="50" relative="1" as="geometry">
            <mxPoint x="328.0844155844156" y="1301.729934924078" as="sourcePoint" />
            <mxPoint x="393.7012987012987" y="1367.9880694143167" as="targetPoint" />
          </mxGeometry>
        </mxCell>
        <mxCell id="SAPvgv7C_WiaeEBQx2nU-57" value="" style="endArrow=none;html=1;rounded=0;exitX=0.5;exitY=1;exitDx=0;exitDy=0;fontSize=12;entryX=0.5;entryY=0;entryDx=0;entryDy=0;" parent="SAPvgv7C_WiaeEBQx2nU-128" source="SAPvgv7C_WiaeEBQx2nU-49" target="SAPvgv7C_WiaeEBQx2nU-52" edge="1">
          <mxGeometry width="50" height="50" relative="1" as="geometry">
            <mxPoint x="237.33766233766235" y="1301.729934924078" as="sourcePoint" />
            <mxPoint x="251.29870129870127" y="1406.7733188720176" as="targetPoint" />
          </mxGeometry>
        </mxCell>
        <mxCell id="SAPvgv7C_WiaeEBQx2nU-58" value="" style="endArrow=none;html=1;rounded=0;entryX=0.5;entryY=1;entryDx=0;entryDy=0;exitX=0.5;exitY=0;exitDx=0;exitDy=0;fontSize=12;" parent="SAPvgv7C_WiaeEBQx2nU-128" source="SAPvgv7C_WiaeEBQx2nU-36" target="SAPvgv7C_WiaeEBQx2nU-59" edge="1">
          <mxGeometry width="50" height="50" relative="1" as="geometry">
            <mxPoint x="853.0194805194806" y="591.4750542299349" as="sourcePoint" />
            <mxPoint x="746.9155844155845" y="533.297180043384" as="targetPoint" />
          </mxGeometry>
        </mxCell>
        <mxCell id="SAPvgv7C_WiaeEBQx2nU-59" value="hasMultiableTries" style="html=1;overflow=block;blockSpacing=1;whiteSpace=wrap;ellipse;fontSize=21;fontFamily=Roboto;fontColor=#3d4752;align=center;spacing=3.8;strokeOpacity=100;fillOpacity=100;rounded=1;absoluteArcSize=1;arcSize=7.5;fillColor=#ffffff;strokeWidth=0.8;lucidId=z8JoUT3BMebs;fontStyle=1" parent="SAPvgv7C_WiaeEBQx2nU-128" vertex="1">
          <mxGeometry x="892.7142857142857" y="478.351409978308" width="167.53246753246754" height="64.64208242950109" as="geometry" />
        </mxCell>
        <mxCell id="SAPvgv7C_WiaeEBQx2nU-60" value="" style="endArrow=none;html=1;rounded=0;entryX=0.5;entryY=0;entryDx=0;entryDy=0;exitX=0.25;exitY=1;exitDx=0;exitDy=0;fontSize=12;" parent="SAPvgv7C_WiaeEBQx2nU-128" source="SAPvgv7C_WiaeEBQx2nU-6" target="SAPvgv7C_WiaeEBQx2nU-61" edge="1">
          <mxGeometry width="50" height="50" relative="1" as="geometry">
            <mxPoint x="375.55194805194805" y="311.49403470715833" as="sourcePoint" />
            <mxPoint x="773.4415584415584" y="805.197939262473" as="targetPoint" />
          </mxGeometry>
        </mxCell>
        <mxCell id="SAPvgv7C_WiaeEBQx2nU-61" value="Password" style="html=1;overflow=block;blockSpacing=1;whiteSpace=wrap;ellipse;fontSize=21;fontFamily=Roboto;fontColor=#3d4752;align=center;spacing=3.8;strokeOpacity=100;fillOpacity=100;rounded=1;absoluteArcSize=1;arcSize=7.5;fillColor=#ffffff;strokeWidth=0.8;lucidId=z8Jo22FM75JE;fontStyle=1" parent="SAPvgv7C_WiaeEBQx2nU-128" vertex="1">
          <mxGeometry x="304.9545454545455" y="339.3709327548807" width="106.10389610389609" height="54.945770065075926" as="geometry" />
        </mxCell>
        <mxCell id="SAPvgv7C_WiaeEBQx2nU-62" value="" style="endArrow=none;html=1;rounded=0;entryX=1;entryY=0.5;entryDx=0;entryDy=0;exitX=0;exitY=0.25;exitDx=0;exitDy=0;fontSize=12;" parent="SAPvgv7C_WiaeEBQx2nU-128" source="SAPvgv7C_WiaeEBQx2nU-19" target="SAPvgv7C_WiaeEBQx2nU-63" edge="1">
          <mxGeometry width="50" height="50" relative="1" as="geometry">
            <mxPoint x="1510.5844155844154" y="1176.4859002169198" as="sourcePoint" />
            <mxPoint x="1911.2662337662334" y="1706.9549891540134" as="targetPoint" />
          </mxGeometry>
        </mxCell>
        <mxCell id="SAPvgv7C_WiaeEBQx2nU-63" value="Password" style="html=1;overflow=block;blockSpacing=1;whiteSpace=wrap;ellipse;fontSize=21;fontFamily=Roboto;fontColor=#3d4752;align=center;spacing=3.8;strokeOpacity=100;fillOpacity=100;rounded=1;absoluteArcSize=1;arcSize=7.5;fillColor=#ffffff;strokeWidth=0.8;lucidId=z8Jo22FM75JE;fontStyle=1" parent="SAPvgv7C_WiaeEBQx2nU-128" vertex="1">
          <mxGeometry x="1442.7792207792206" y="1152.2451193058569" width="106.10389610389609" height="54.945770065075926" as="geometry" />
        </mxCell>
        <mxCell id="SAPvgv7C_WiaeEBQx2nU-64" value="&lt;span data-lucid-content=&quot;{&amp;quot;t&amp;quot;:&amp;quot;Instructor&amp;quot;,&amp;quot;m&amp;quot;:[{&amp;quot;s&amp;quot;:0,&amp;quot;n&amp;quot;:&amp;quot;a&amp;quot;,&amp;quot;v&amp;quot;:&amp;quot;center&amp;quot;},{&amp;quot;s&amp;quot;:0,&amp;quot;n&amp;quot;:&amp;quot;f&amp;quot;,&amp;quot;v&amp;quot;:&amp;quot;Roboto&amp;quot;,&amp;quot;e&amp;quot;:10},{&amp;quot;s&amp;quot;:0,&amp;quot;n&amp;quot;:&amp;quot;fc&amp;quot;,&amp;quot;v&amp;quot;:&amp;quot;Regular&amp;quot;,&amp;quot;e&amp;quot;:10},{&amp;quot;s&amp;quot;:0,&amp;quot;n&amp;quot;:&amp;quot;fid&amp;quot;,&amp;quot;v&amp;quot;:80337,&amp;quot;e&amp;quot;:10},{&amp;quot;s&amp;quot;:0,&amp;quot;n&amp;quot;:&amp;quot;s&amp;quot;,&amp;quot;v&amp;quot;:22.222222222222225,&amp;quot;e&amp;quot;:10},{&amp;quot;s&amp;quot;:0,&amp;quot;n&amp;quot;:&amp;quot;c&amp;quot;,&amp;quot;v&amp;quot;:&amp;quot;#3d4752ff&amp;quot;,&amp;quot;e&amp;quot;:10}]}&quot; data-lucid-type=&quot;application/vnd.lucid.text&quot; style=&quot;font-size: 29px;&quot;&gt;&lt;span style=&quot;color: rgb(61, 71, 82); font-size: 29px;&quot;&gt;Admin&lt;/span&gt;&lt;/span&gt;" style="rounded=0;whiteSpace=wrap;html=1;fontStyle=1;fontSize=29;" parent="SAPvgv7C_WiaeEBQx2nU-128" vertex="1">
          <mxGeometry x="2122.077922077922" y="197.15835140997834" width="167.53246753246754" height="96.96312364425161" as="geometry" />
        </mxCell>
        <mxCell id="SAPvgv7C_WiaeEBQx2nU-65" value="&lt;font style=&quot;font-size: 21px;&quot; color=&quot;#3d4752&quot;&gt;&lt;span style=&quot;font-size: 21px;&quot;&gt;&lt;u style=&quot;font-size: 21px;&quot;&gt;&amp;nbsp; &amp;nbsp;id&amp;nbsp;&amp;nbsp;&lt;/u&gt;&lt;/span&gt;&lt;/font&gt;" style="ellipse;whiteSpace=wrap;html=1;fontSize=21;fontStyle=1" parent="SAPvgv7C_WiaeEBQx2nU-128" vertex="1">
          <mxGeometry x="2054.2727272727275" y="116.35574837310197" width="83.76623376623377" height="48.481561822125805" as="geometry" />
        </mxCell>
        <mxCell id="SAPvgv7C_WiaeEBQx2nU-66" value="Full name" style="ellipse;whiteSpace=wrap;html=1;fontSize=21;fontStyle=1" parent="SAPvgv7C_WiaeEBQx2nU-128" vertex="1">
          <mxGeometry x="2333.5876623376626" y="242.4078091106291" width="111.68831168831169" height="48.481561822125805" as="geometry" />
        </mxCell>
        <mxCell id="SAPvgv7C_WiaeEBQx2nU-67" value="" style="endArrow=none;html=1;rounded=0;entryX=1;entryY=1;entryDx=0;entryDy=0;exitX=0.25;exitY=0;exitDx=0;exitDy=0;" parent="SAPvgv7C_WiaeEBQx2nU-128" source="SAPvgv7C_WiaeEBQx2nU-64" target="SAPvgv7C_WiaeEBQx2nU-65" edge="1">
          <mxGeometry width="50" height="50" relative="1" as="geometry">
            <mxPoint x="2359.4155844155844" y="366.8438177874187" as="sourcePoint" />
            <mxPoint x="2429.2207792207796" y="286.04121475054234" as="targetPoint" />
          </mxGeometry>
        </mxCell>
        <mxCell id="SAPvgv7C_WiaeEBQx2nU-68" value="" style="endArrow=none;html=1;rounded=0;entryX=0;entryY=0.5;entryDx=0;entryDy=0;exitX=1;exitY=0.5;exitDx=0;exitDy=0;" parent="SAPvgv7C_WiaeEBQx2nU-128" source="SAPvgv7C_WiaeEBQx2nU-64" target="SAPvgv7C_WiaeEBQx2nU-66" edge="1">
          <mxGeometry width="50" height="50" relative="1" as="geometry">
            <mxPoint x="2373.376623376623" y="256.95227765726685" as="sourcePoint" />
            <mxPoint x="2275.64935064935" y="224.63123644251627" as="targetPoint" />
          </mxGeometry>
        </mxCell>
        <mxCell id="SAPvgv7C_WiaeEBQx2nU-69" value="" style="endArrow=none;html=1;rounded=0;entryX=0;entryY=0;entryDx=0;entryDy=0;exitX=1;exitY=1;exitDx=0;exitDy=0;" parent="SAPvgv7C_WiaeEBQx2nU-128" source="SAPvgv7C_WiaeEBQx2nU-66" target="SAPvgv7C_WiaeEBQx2nU-70" edge="1">
          <mxGeometry width="50" height="50" relative="1" as="geometry">
            <mxPoint x="2443.1818181818185" y="159.98915401301517" as="sourcePoint" />
            <mxPoint x="2345.454545454545" y="127.66811279826466" as="targetPoint" />
          </mxGeometry>
        </mxCell>
        <mxCell id="SAPvgv7C_WiaeEBQx2nU-70" value="Last name" style="ellipse;whiteSpace=wrap;html=1;fontSize=21;fontStyle=1" parent="SAPvgv7C_WiaeEBQx2nU-128" vertex="1">
          <mxGeometry x="2445.275974025974" y="302.2017353579175" width="111.68831168831169" height="48.481561822125805" as="geometry" />
        </mxCell>
        <mxCell id="SAPvgv7C_WiaeEBQx2nU-71" value="First name" style="ellipse;whiteSpace=wrap;html=1;fontSize=21;fontStyle=1" parent="SAPvgv7C_WiaeEBQx2nU-128" vertex="1">
          <mxGeometry x="2468.3116883116877" y="210.8947939262473" width="111.68831168831169" height="48.481561822125805" as="geometry" />
        </mxCell>
        <mxCell id="SAPvgv7C_WiaeEBQx2nU-72" value="" style="endArrow=none;html=1;rounded=0;entryX=0;entryY=0.5;entryDx=0;entryDy=0;exitX=1;exitY=0;exitDx=0;exitDy=0;" parent="SAPvgv7C_WiaeEBQx2nU-128" source="SAPvgv7C_WiaeEBQx2nU-66" target="SAPvgv7C_WiaeEBQx2nU-71" edge="1">
          <mxGeometry width="50" height="50" relative="1" as="geometry">
            <mxPoint x="2314.7402597402593" y="159.98915401301517" as="sourcePoint" />
            <mxPoint x="2205.8441558441564" y="121.20390455531455" as="targetPoint" />
          </mxGeometry>
        </mxCell>
        <mxCell id="SAPvgv7C_WiaeEBQx2nU-73" value="sex" style="ellipse;whiteSpace=wrap;html=1;fontSize=21;fontStyle=1" parent="SAPvgv7C_WiaeEBQx2nU-128" vertex="1">
          <mxGeometry x="2232.9740259740256" y="67.87418655097613" width="111.68831168831169" height="48.481561822125805" as="geometry" />
        </mxCell>
        <mxCell id="SAPvgv7C_WiaeEBQx2nU-74" value="" style="endArrow=none;html=1;rounded=0;entryX=0.5;entryY=1;entryDx=0;entryDy=0;exitX=0.75;exitY=0;exitDx=0;exitDy=0;" parent="SAPvgv7C_WiaeEBQx2nU-128" source="SAPvgv7C_WiaeEBQx2nU-64" target="SAPvgv7C_WiaeEBQx2nU-73" edge="1">
          <mxGeometry width="50" height="50" relative="1" as="geometry">
            <mxPoint x="2122.077922077922" y="253.7201735357918" as="sourcePoint" />
            <mxPoint x="1898.7012987012988" y="286.04121475054234" as="targetPoint" />
          </mxGeometry>
        </mxCell>
        <mxCell id="SAPvgv7C_WiaeEBQx2nU-75" value="&lt;font style=&quot;font-size: 21px;&quot;&gt;Phone&lt;/font&gt;" style="html=1;overflow=block;blockSpacing=1;whiteSpace=wrap;ellipse;fontSize=21;fontFamily=Roboto;fontColor=#3d4752;align=center;spacing=3.8;strokeOpacity=100;fillOpacity=100;rounded=1;absoluteArcSize=1;arcSize=7.5;fillColor=#ffffff;strokeWidth=0.8;lucidId=z8Jo-k4NWJHX;fontStyle=1" parent="SAPvgv7C_WiaeEBQx2nU-128" vertex="1">
          <mxGeometry x="2012.3896103896102" y="318.3622559652929" width="111.68831168831169" height="48.481561822125805" as="geometry" />
        </mxCell>
        <mxCell id="SAPvgv7C_WiaeEBQx2nU-76" value="" style="endArrow=none;html=1;rounded=0;entryX=1;entryY=0.5;entryDx=0;entryDy=0;exitX=0.25;exitY=1;exitDx=0;exitDy=0;" parent="SAPvgv7C_WiaeEBQx2nU-128" source="SAPvgv7C_WiaeEBQx2nU-64" target="SAPvgv7C_WiaeEBQx2nU-75" edge="1">
          <mxGeometry width="50" height="50" relative="1" as="geometry">
            <mxPoint x="2149.9999999999995" y="269.8806941431671" as="sourcePoint" />
            <mxPoint x="2108.116883116883" y="269.8806941431671" as="targetPoint" />
          </mxGeometry>
        </mxCell>
        <mxCell id="SAPvgv7C_WiaeEBQx2nU-77" value="" style="endArrow=none;html=1;rounded=0;entryX=0;entryY=0;entryDx=0;entryDy=0;exitX=1;exitY=1;exitDx=0;exitDy=0;fontSize=12;" parent="SAPvgv7C_WiaeEBQx2nU-128" source="SAPvgv7C_WiaeEBQx2nU-64" target="SAPvgv7C_WiaeEBQx2nU-78" edge="1">
          <mxGeometry width="50" height="50" relative="1" as="geometry">
            <mxPoint x="2649.8051948051952" y="479.9674620390456" as="sourcePoint" />
            <mxPoint x="2690.2922077922076" y="594.70715835141" as="targetPoint" />
          </mxGeometry>
        </mxCell>
        <mxCell id="SAPvgv7C_WiaeEBQx2nU-78" value="Email" style="html=1;overflow=block;blockSpacing=1;whiteSpace=wrap;ellipse;fontSize=21;fontFamily=Roboto;fontColor=#3d4752;align=center;spacing=3.8;strokeOpacity=100;fillOpacity=100;rounded=1;absoluteArcSize=1;arcSize=7.5;fillColor=#ffffff;strokeWidth=0.8;lucidId=z8Jo22FM75JE;fontStyle=1" parent="SAPvgv7C_WiaeEBQx2nU-128" vertex="1">
          <mxGeometry x="2319.5324675324673" y="339.3709327548807" width="106.10389610389609" height="54.945770065075926" as="geometry" />
        </mxCell>
        <mxCell id="SAPvgv7C_WiaeEBQx2nU-79" value="" style="endArrow=none;html=1;rounded=0;entryX=0.5;entryY=0;entryDx=0;entryDy=0;exitX=0.75;exitY=1;exitDx=0;exitDy=0;fontSize=12;" parent="SAPvgv7C_WiaeEBQx2nU-128" source="SAPvgv7C_WiaeEBQx2nU-64" target="SAPvgv7C_WiaeEBQx2nU-80" edge="1">
          <mxGeometry width="50" height="50" relative="1" as="geometry">
            <mxPoint x="2180.714285714285" y="338.9669197396963" as="sourcePoint" />
            <mxPoint x="2578.603896103896" y="832.6708242950109" as="targetPoint" />
          </mxGeometry>
        </mxCell>
        <mxCell id="SAPvgv7C_WiaeEBQx2nU-80" value="Password" style="html=1;overflow=block;blockSpacing=1;whiteSpace=wrap;ellipse;fontSize=21;fontFamily=Roboto;fontColor=#3d4752;align=center;spacing=3.8;strokeOpacity=100;fillOpacity=100;rounded=1;absoluteArcSize=1;arcSize=7.5;fillColor=#ffffff;strokeWidth=0.8;lucidId=z8Jo22FM75JE;fontStyle=1" parent="SAPvgv7C_WiaeEBQx2nU-128" vertex="1">
          <mxGeometry x="2216.220779220779" y="394.3167028199567" width="106.10389610389609" height="54.945770065075926" as="geometry" />
        </mxCell>
        <mxCell id="SAPvgv7C_WiaeEBQx2nU-81" value="" style="endArrow=none;html=1;rounded=0;entryX=1;entryY=0;entryDx=0;entryDy=0;exitX=0;exitY=0.5;exitDx=0;exitDy=0;fontSize=12;" parent="SAPvgv7C_WiaeEBQx2nU-128" source="SAPvgv7C_WiaeEBQx2nU-49" target="SAPvgv7C_WiaeEBQx2nU-82" edge="1">
          <mxGeometry width="50" height="50" relative="1" as="geometry">
            <mxPoint x="138.21428571428572" y="1217.6952277657267" as="sourcePoint" />
            <mxPoint x="311.33116883116884" y="1303.3459869848155" as="targetPoint" />
          </mxGeometry>
        </mxCell>
        <mxCell id="SAPvgv7C_WiaeEBQx2nU-82" value="Submit_date" style="html=1;overflow=block;blockSpacing=1;whiteSpace=wrap;ellipse;fontSize=21;fontFamily=Roboto;fontColor=#3d4752;align=center;spacing=3.8;strokeOpacity=100;fillOpacity=100;rounded=1;absoluteArcSize=1;arcSize=7.5;fillColor=#ffffff;strokeWidth=0.8;lucidId=z8JojGHYJCK3;fontStyle=1" parent="SAPvgv7C_WiaeEBQx2nU-128" vertex="1">
          <mxGeometry x="2" y="1237.895878524946" width="138.21428571428572" height="64.64208242950109" as="geometry" />
        </mxCell>
        <mxCell id="SAPvgv7C_WiaeEBQx2nU-83" value="Answer_url" style="html=1;overflow=block;blockSpacing=1;whiteSpace=wrap;ellipse;fontSize=21;fontFamily=Roboto;fontColor=#3d4752;align=center;spacing=3.8;strokeOpacity=100;fillOpacity=100;rounded=1;absoluteArcSize=1;arcSize=7.5;fillColor=#ffffff;strokeWidth=0.8;lucidId=z8Jo9Yp90vg3;fontStyle=1" parent="SAPvgv7C_WiaeEBQx2nU-128" vertex="1">
          <mxGeometry x="431.30194805194805" y="1106.9956616052061" width="138.21428571428572" height="69.49023861171366" as="geometry" />
        </mxCell>
        <mxCell id="SAPvgv7C_WiaeEBQx2nU-84" value="" style="endArrow=none;html=1;rounded=0;entryX=1;entryY=0.5;entryDx=0;entryDy=0;exitX=0;exitY=0.5;exitDx=0;exitDy=0;fontSize=12;" parent="SAPvgv7C_WiaeEBQx2nU-128" source="SAPvgv7C_WiaeEBQx2nU-83" target="SAPvgv7C_WiaeEBQx2nU-49" edge="1">
          <mxGeometry width="50" height="50" relative="1" as="geometry">
            <mxPoint x="328.0844155844156" y="1301.729934924078" as="sourcePoint" />
            <mxPoint x="392.3051948051948" y="1369.6041214750542" as="targetPoint" />
          </mxGeometry>
        </mxCell>
        <mxCell id="SAPvgv7C_WiaeEBQx2nU-85" value="" style="endArrow=none;html=1;rounded=0;entryX=0;entryY=0.5;entryDx=0;entryDy=0;exitX=1;exitY=0.75;exitDx=0;exitDy=0;fontSize=12;" parent="SAPvgv7C_WiaeEBQx2nU-128" source="SAPvgv7C_WiaeEBQx2nU-19" target="SAPvgv7C_WiaeEBQx2nU-86" edge="1">
          <mxGeometry width="50" height="50" relative="1" as="geometry">
            <mxPoint x="1853.327922077922" y="1296.8817787418657" as="sourcePoint" />
            <mxPoint x="1893.814935064935" y="1439.9023861171365" as="targetPoint" />
          </mxGeometry>
        </mxCell>
        <mxCell id="SAPvgv7C_WiaeEBQx2nU-86" value="Profile_picture" style="html=1;overflow=block;blockSpacing=1;whiteSpace=wrap;ellipse;fontSize=21;fontFamily=Roboto;fontColor=#3d4752;align=center;spacing=3.8;strokeOpacity=100;fillOpacity=100;rounded=1;absoluteArcSize=1;arcSize=7.5;fillColor=#ffffff;strokeWidth=0.8;lucidId=z8Jo22FM75JE;fontStyle=1" parent="SAPvgv7C_WiaeEBQx2nU-128" vertex="1">
          <mxGeometry x="1910.4740259740258" y="1291.225596529284" width="138.21428571428572" height="64.64208242950109" as="geometry" />
        </mxCell>
        <mxCell id="SAPvgv7C_WiaeEBQx2nU-87" value="Profile_picture" style="html=1;overflow=block;blockSpacing=1;whiteSpace=wrap;ellipse;fontSize=21;fontFamily=Roboto;fontColor=#3d4752;align=center;spacing=3.8;strokeOpacity=100;fillOpacity=100;rounded=1;absoluteArcSize=1;arcSize=7.5;fillColor=#ffffff;strokeWidth=0.8;lucidId=z8Jo22FM75JE;fontStyle=1" parent="SAPvgv7C_WiaeEBQx2nU-128" vertex="1">
          <mxGeometry x="152.77922077922076" y="92.11496746203903" width="138.21428571428572" height="64.64208242950109" as="geometry" />
        </mxCell>
        <mxCell id="SAPvgv7C_WiaeEBQx2nU-88" value="" style="endArrow=none;html=1;rounded=0;entryX=1;entryY=1;entryDx=0;entryDy=0;exitX=0;exitY=0;exitDx=0;exitDy=0;fontSize=12;" parent="SAPvgv7C_WiaeEBQx2nU-128" source="SAPvgv7C_WiaeEBQx2nU-6" target="SAPvgv7C_WiaeEBQx2nU-87" edge="1">
          <mxGeometry width="50" height="50" relative="1" as="geometry">
            <mxPoint x="760.8766233766233" y="178.57375271149678" as="sourcePoint" />
            <mxPoint x="825.7954545454545" y="358.763557483731" as="targetPoint" />
          </mxGeometry>
        </mxCell>
        <mxCell id="SAPvgv7C_WiaeEBQx2nU-89" value="" style="endArrow=none;html=1;rounded=0;entryX=1;entryY=0;entryDx=0;entryDy=0;exitX=0.5;exitY=1;exitDx=0;exitDy=0;fontSize=12;" parent="SAPvgv7C_WiaeEBQx2nU-128" source="SAPvgv7C_WiaeEBQx2nU-64" target="SAPvgv7C_WiaeEBQx2nU-90" edge="1">
          <mxGeometry width="50" height="50" relative="1" as="geometry">
            <mxPoint x="2145.8116883116877" y="507.4403470715836" as="sourcePoint" />
            <mxPoint x="2640.730519480519" y="688.4381778741866" as="targetPoint" />
          </mxGeometry>
        </mxCell>
        <mxCell id="SAPvgv7C_WiaeEBQx2nU-90" value="Profile_picture" style="html=1;overflow=block;blockSpacing=1;whiteSpace=wrap;ellipse;fontSize=21;fontFamily=Roboto;fontColor=#3d4752;align=center;spacing=3.8;strokeOpacity=100;fillOpacity=100;rounded=1;absoluteArcSize=1;arcSize=7.5;fillColor=#ffffff;strokeWidth=0.8;lucidId=z8Jo22FM75JE;fontStyle=1" parent="SAPvgv7C_WiaeEBQx2nU-128" vertex="1">
          <mxGeometry x="2054.2727272727275" y="384.62039045553144" width="138.21428571428572" height="64.64208242950109" as="geometry" />
        </mxCell>
        <mxCell id="SAPvgv7C_WiaeEBQx2nU-91" value="&lt;font style=&quot;font-size: 29px;&quot;&gt;&lt;span style=&quot;font-size: 29px;&quot;&gt;Has&lt;/span&gt;&lt;/font&gt;" style="rhombus;whiteSpace=wrap;html=1;fontStyle=1;fontSize=29;" parent="SAPvgv7C_WiaeEBQx2nU-128" vertex="1">
          <mxGeometry x="1222.9870129870133" y="484.8156182212582" width="184.2857142857143" height="129.28416485900217" as="geometry" />
        </mxCell>
        <mxCell id="SAPvgv7C_WiaeEBQx2nU-92" value="" style="endArrow=none;html=1;rounded=0;entryX=0;entryY=0.5;entryDx=0;entryDy=0;exitX=1;exitY=0.5;exitDx=0;exitDy=0;" parent="SAPvgv7C_WiaeEBQx2nU-128" source="SAPvgv7C_WiaeEBQx2nU-36" target="SAPvgv7C_WiaeEBQx2nU-91" edge="1">
          <mxGeometry width="50" height="50" relative="1" as="geometry">
            <mxPoint x="1088.961038961039" y="707.8308026030368" as="sourcePoint" />
            <mxPoint x="1091.753246753247" y="610.8676789587853" as="targetPoint" />
          </mxGeometry>
        </mxCell>
        <mxCell id="SAPvgv7C_WiaeEBQx2nU-93" value="" style="endArrow=none;html=1;rounded=0;entryX=0.5;entryY=1;entryDx=0;entryDy=0;exitX=1;exitY=0.5;exitDx=0;exitDy=0;" parent="SAPvgv7C_WiaeEBQx2nU-128" source="SAPvgv7C_WiaeEBQx2nU-91" target="SAPvgv7C_WiaeEBQx2nU-1" edge="1">
          <mxGeometry width="50" height="50" relative="1" as="geometry">
            <mxPoint x="1054.0584415584415" y="725.6073752711496" as="sourcePoint" />
            <mxPoint x="1239.7402597402595" y="568.8503253796096" as="targetPoint" />
          </mxGeometry>
        </mxCell>
        <mxCell id="SAPvgv7C_WiaeEBQx2nU-94" value="" style="endArrow=none;html=1;rounded=0;entryX=0;entryY=0.5;entryDx=0;entryDy=0;exitX=1;exitY=0.5;exitDx=0;exitDy=0;" parent="SAPvgv7C_WiaeEBQx2nU-128" source="SAPvgv7C_WiaeEBQx2nU-6" target="SAPvgv7C_WiaeEBQx2nU-115" edge="1">
          <mxGeometry width="50" height="50" relative="1" as="geometry">
            <mxPoint x="1054.0584415584415" y="725.6073752711496" as="sourcePoint" />
            <mxPoint x="1239.7402597402595" y="568.8503253796096" as="targetPoint" />
          </mxGeometry>
        </mxCell>
        <mxCell id="SAPvgv7C_WiaeEBQx2nU-95" value="" style="endArrow=none;html=1;rounded=0;entryX=0;entryY=0.5;entryDx=0;entryDy=0;exitX=1;exitY=0.5;exitDx=0;exitDy=0;" parent="SAPvgv7C_WiaeEBQx2nU-128" source="SAPvgv7C_WiaeEBQx2nU-115" target="SAPvgv7C_WiaeEBQx2nU-1" edge="1">
          <mxGeometry width="50" height="50" relative="1" as="geometry">
            <mxPoint x="273.6363636363636" y="258.56832971800435" as="sourcePoint" />
            <mxPoint x="790.1948051948051" y="265.03253796095447" as="targetPoint" />
          </mxGeometry>
        </mxCell>
        <mxCell id="SAPvgv7C_WiaeEBQx2nU-96" value="&lt;span style=&quot;font-size: 29px;&quot;&gt;&lt;span style=&quot;font-size: 29px;&quot;&gt;take&lt;/span&gt;&lt;/span&gt;" style="rhombus;whiteSpace=wrap;html=1;fontStyle=1;fontSize=29;" parent="SAPvgv7C_WiaeEBQx2nU-128" vertex="1">
          <mxGeometry x="1558.0519480519479" y="649.6529284164859" width="184.2857142857143" height="129.28416485900217" as="geometry" />
        </mxCell>
        <mxCell id="SAPvgv7C_WiaeEBQx2nU-97" value="" style="endArrow=none;html=1;rounded=0;entryX=0.75;entryY=1;entryDx=0;entryDy=0;exitX=0;exitY=0.5;exitDx=0;exitDy=0;" parent="SAPvgv7C_WiaeEBQx2nU-128" source="SAPvgv7C_WiaeEBQx2nU-96" target="SAPvgv7C_WiaeEBQx2nU-1" edge="1">
          <mxGeometry width="50" height="50" relative="1" as="geometry">
            <mxPoint x="1424.0259740259742" y="568.8503253796096" as="sourcePoint" />
            <mxPoint x="1535.7142857142858" y="326.4425162689805" as="targetPoint" />
          </mxGeometry>
        </mxCell>
        <mxCell id="SAPvgv7C_WiaeEBQx2nU-98" value="" style="endArrow=none;html=1;rounded=0;entryX=1;entryY=0.5;entryDx=0;entryDy=0;exitX=0.5;exitY=0;exitDx=0;exitDy=0;" parent="SAPvgv7C_WiaeEBQx2nU-128" source="SAPvgv7C_WiaeEBQx2nU-19" target="SAPvgv7C_WiaeEBQx2nU-96" edge="1">
          <mxGeometry width="50" height="50" relative="1" as="geometry">
            <mxPoint x="1574.8051948051948" y="733.6876355748374" as="sourcePoint" />
            <mxPoint x="1577.5974025974026" y="326.4425162689805" as="targetPoint" />
          </mxGeometry>
        </mxCell>
        <mxCell id="SAPvgv7C_WiaeEBQx2nU-99" value="&lt;span style=&quot;font-size: 29px;&quot;&gt;&lt;span style=&quot;font-size: 29px;&quot;&gt;preforme&lt;/span&gt;&lt;/span&gt;" style="rhombus;whiteSpace=wrap;html=1;fontStyle=1;fontSize=29;" parent="SAPvgv7C_WiaeEBQx2nU-128" vertex="1">
          <mxGeometry x="1373.7662337662334" y="841.155097613883" width="184.2857142857143" height="129.28416485900217" as="geometry" />
        </mxCell>
        <mxCell id="SAPvgv7C_WiaeEBQx2nU-100" value="" style="endArrow=none;html=1;rounded=0;entryX=1;entryY=0.5;entryDx=0;entryDy=0;exitX=0.25;exitY=0;exitDx=0;exitDy=0;" parent="SAPvgv7C_WiaeEBQx2nU-128" source="SAPvgv7C_WiaeEBQx2nU-19" target="SAPvgv7C_WiaeEBQx2nU-99" edge="1">
          <mxGeometry width="50" height="50" relative="1" as="geometry">
            <mxPoint x="1756.2987012987016" y="1160.3253796095446" as="sourcePoint" />
            <mxPoint x="1759.0909090909088" y="733.6876355748374" as="targetPoint" />
          </mxGeometry>
        </mxCell>
        <mxCell id="SAPvgv7C_WiaeEBQx2nU-101" value="" style="endArrow=none;html=1;rounded=0;entryX=1;entryY=1;entryDx=0;entryDy=0;exitX=0;exitY=0.5;exitDx=0;exitDy=0;" parent="SAPvgv7C_WiaeEBQx2nU-128" source="SAPvgv7C_WiaeEBQx2nU-99" target="SAPvgv7C_WiaeEBQx2nU-36" edge="1">
          <mxGeometry width="50" height="50" relative="1" as="geometry">
            <mxPoint x="1710.2272727272725" y="1160.3253796095446" as="sourcePoint" />
            <mxPoint x="1574.8051948051948" y="925.9978308026031" as="targetPoint" />
          </mxGeometry>
        </mxCell>
        <mxCell id="SAPvgv7C_WiaeEBQx2nU-102" value="&lt;font style=&quot;font-size: 29px;&quot;&gt;&lt;span style=&quot;font-size: 29px;&quot;&gt;provide&lt;/span&gt;&lt;/font&gt;" style="rhombus;whiteSpace=wrap;html=1;fontStyle=1;fontSize=29;" parent="SAPvgv7C_WiaeEBQx2nU-128" vertex="1">
          <mxGeometry x="1759.7889610389611" y="180.99783080260303" width="184.2857142857143" height="129.28416485900217" as="geometry" />
        </mxCell>
        <mxCell id="SAPvgv7C_WiaeEBQx2nU-103" value="" style="endArrow=none;html=1;rounded=0;entryX=0;entryY=0.5;entryDx=0;entryDy=0;exitX=1;exitY=0.5;exitDx=0;exitDy=0;" parent="SAPvgv7C_WiaeEBQx2nU-128" source="SAPvgv7C_WiaeEBQx2nU-1" target="SAPvgv7C_WiaeEBQx2nU-102" edge="1">
          <mxGeometry width="50" height="50" relative="1" as="geometry">
            <mxPoint x="974.4805194805194" y="265.03253796095447" as="sourcePoint" />
            <mxPoint x="1451.948051948052" y="277.96095444685466" as="targetPoint" />
          </mxGeometry>
        </mxCell>
        <mxCell id="SAPvgv7C_WiaeEBQx2nU-104" value="" style="endArrow=none;html=1;rounded=0;entryX=0;entryY=0.5;entryDx=0;entryDy=0;exitX=1;exitY=0.5;exitDx=0;exitDy=0;" parent="SAPvgv7C_WiaeEBQx2nU-128" source="SAPvgv7C_WiaeEBQx2nU-102" target="SAPvgv7C_WiaeEBQx2nU-64" edge="1">
          <mxGeometry width="50" height="50" relative="1" as="geometry">
            <mxPoint x="1619.4805194805194" y="277.96095444685466" as="sourcePoint" />
            <mxPoint x="1775.8441558441555" y="277.96095444685466" as="targetPoint" />
          </mxGeometry>
        </mxCell>
        <mxCell id="SAPvgv7C_WiaeEBQx2nU-105" value="" style="endArrow=none;html=1;rounded=0;entryX=0;entryY=0.5;entryDx=0;entryDy=0;exitX=1;exitY=0.5;exitDx=0;exitDy=0;" parent="SAPvgv7C_WiaeEBQx2nU-128" source="SAPvgv7C_WiaeEBQx2nU-107" target="SAPvgv7C_WiaeEBQx2nU-36" edge="1">
          <mxGeometry width="50" height="50" relative="1" as="geometry">
            <mxPoint x="626.8506493506494" y="871.0520607375271" as="sourcePoint" />
            <mxPoint x="1574.8051948051948" y="925.9978308026031" as="targetPoint" />
          </mxGeometry>
        </mxCell>
        <mxCell id="SAPvgv7C_WiaeEBQx2nU-106" value="" style="endArrow=none;html=1;rounded=0;entryX=0.75;entryY=0;entryDx=0;entryDy=0;exitX=0;exitY=0.5;exitDx=0;exitDy=0;" parent="SAPvgv7C_WiaeEBQx2nU-128" source="SAPvgv7C_WiaeEBQx2nU-107" target="SAPvgv7C_WiaeEBQx2nU-49" edge="1">
          <mxGeometry width="50" height="50" relative="1" as="geometry">
            <mxPoint x="442.564935064935" y="871.0520607375271" as="sourcePoint" />
            <mxPoint x="873.961038961039" y="725.6073752711496" as="targetPoint" />
          </mxGeometry>
        </mxCell>
        <mxCell id="SAPvgv7C_WiaeEBQx2nU-107" value="&lt;font style=&quot;font-size: 29px;&quot;&gt;&lt;span style=&quot;font-size: 29px;&quot;&gt;Generate&lt;/span&gt;&lt;/font&gt;" style="rhombus;whiteSpace=wrap;html=1;fontStyle=1;fontSize=29;" parent="SAPvgv7C_WiaeEBQx2nU-128" vertex="1">
          <mxGeometry x="442.564935064935" y="813.682212581345" width="184.2857142857143" height="129.28416485900217" as="geometry" />
        </mxCell>
        <mxCell id="SAPvgv7C_WiaeEBQx2nU-108" value="" style="endArrow=none;html=1;rounded=0;entryX=0.941;entryY=-0.029;entryDx=0;entryDy=0;exitX=0.107;exitY=0.642;exitDx=0;exitDy=0;exitPerimeter=0;entryPerimeter=0;" parent="SAPvgv7C_WiaeEBQx2nU-128" source="SAPvgv7C_WiaeEBQx2nU-107" target="SAPvgv7C_WiaeEBQx2nU-49" edge="1">
          <mxGeometry width="50" height="50" relative="1" as="geometry">
            <mxPoint x="459.3181818181818" y="898.5249457700651" as="sourcePoint" />
            <mxPoint x="328.0844155844156" y="1191.0303687635574" as="targetPoint" />
          </mxGeometry>
        </mxCell>
        <mxCell id="SAPvgv7C_WiaeEBQx2nU-109" value="" style="endArrow=none;html=1;rounded=0;exitX=0.048;exitY=0.567;exitDx=0;exitDy=0;exitPerimeter=0;entryX=1.007;entryY=0.651;entryDx=0;entryDy=0;entryPerimeter=0;" parent="SAPvgv7C_WiaeEBQx2nU-128" source="SAPvgv7C_WiaeEBQx2nU-91" target="SAPvgv7C_WiaeEBQx2nU-36" edge="1">
          <mxGeometry width="50" height="50" relative="1" as="geometry">
            <mxPoint x="478.8636363636364" y="916.3015184381778" as="sourcePoint" />
            <mxPoint x="1088.961038961039" y="707.8308026030368" as="targetPoint" />
          </mxGeometry>
        </mxCell>
        <mxCell id="SAPvgv7C_WiaeEBQx2nU-110" value="&lt;span style=&quot;font-size: 29px;&quot;&gt;&lt;span style=&quot;font-size: 29px;&quot;&gt;belong&lt;/span&gt;&lt;/span&gt;" style="rhombus;whiteSpace=wrap;html=1;fontStyle=1;fontSize=29;" parent="SAPvgv7C_WiaeEBQx2nU-128" vertex="1">
          <mxGeometry x="873.961038961039" y="1198.3026030368762" width="184.2857142857143" height="129.28416485900217" as="geometry" />
        </mxCell>
        <mxCell id="SAPvgv7C_WiaeEBQx2nU-111" value="" style="endArrow=none;html=1;rounded=0;entryX=1;entryY=0.5;entryDx=0;entryDy=0;exitX=0;exitY=0.75;exitDx=0;exitDy=0;" parent="SAPvgv7C_WiaeEBQx2nU-128" source="SAPvgv7C_WiaeEBQx2nU-19" target="SAPvgv7C_WiaeEBQx2nU-110" edge="1">
          <mxGeometry width="50" height="50" relative="1" as="geometry">
            <mxPoint x="1390.5194805194803" y="925.9978308026031" as="sourcePoint" />
            <mxPoint x="1054.0584415584415" y="780.5531453362256" as="targetPoint" />
          </mxGeometry>
        </mxCell>
        <mxCell id="SAPvgv7C_WiaeEBQx2nU-112" value="" style="endArrow=none;html=1;rounded=0;entryX=0.062;entryY=0.419;entryDx=0;entryDy=0;exitX=1;exitY=0.75;exitDx=0;exitDy=0;entryPerimeter=0;" parent="SAPvgv7C_WiaeEBQx2nU-128" source="SAPvgv7C_WiaeEBQx2nU-49" target="SAPvgv7C_WiaeEBQx2nU-110" edge="1">
          <mxGeometry width="50" height="50" relative="1" as="geometry">
            <mxPoint x="1665.5519480519476" y="1242.7440347071583" as="sourcePoint" />
            <mxPoint x="1074.9999999999998" y="1283.1453362255968" as="targetPoint" />
          </mxGeometry>
        </mxCell>
        <mxCell id="SAPvgv7C_WiaeEBQx2nU-113" value="" style="endArrow=none;html=1;rounded=0;entryX=0.066;entryY=0.585;entryDx=0;entryDy=0;exitX=1.002;exitY=0.895;exitDx=0;exitDy=0;entryPerimeter=0;exitPerimeter=0;" parent="SAPvgv7C_WiaeEBQx2nU-128" source="SAPvgv7C_WiaeEBQx2nU-49" target="SAPvgv7C_WiaeEBQx2nU-110" edge="1">
          <mxGeometry width="50" height="50" relative="1" as="geometry">
            <mxPoint x="372.7597402597403" y="1273.4490238611716" as="sourcePoint" />
            <mxPoint x="908.8636363636363" y="1266.9848156182213" as="targetPoint" />
          </mxGeometry>
        </mxCell>
        <mxCell id="SAPvgv7C_WiaeEBQx2nU-114" value="" style="group;fontStyle=1;fontSize=29;" parent="SAPvgv7C_WiaeEBQx2nU-128" vertex="1" connectable="0">
          <mxGeometry x="707.8246753246752" y="180.99783080260303" width="314.1233766233766" height="129.28416485900217" as="geometry" />
        </mxCell>
        <mxCell id="SAPvgv7C_WiaeEBQx2nU-115" value="&lt;font size=&quot;1&quot; style=&quot;&quot;&gt;&lt;b style=&quot;font-size: 29px;&quot;&gt;teach&lt;/b&gt;&lt;/font&gt;" style="rhombus;whiteSpace=wrap;html=1;" parent="SAPvgv7C_WiaeEBQx2nU-114" vertex="1">
          <mxGeometry x="65.61688311688312" width="184.2857142857143" height="129.28416485900217" as="geometry" />
        </mxCell>
        <mxCell id="SAPvgv7C_WiaeEBQx2nU-116" value="&lt;font style=&quot;font-size: 25px;&quot;&gt;&lt;b style=&quot;font-size: 25px;&quot;&gt;1&lt;/b&gt;&lt;/font&gt;" style="text;html=1;align=center;verticalAlign=middle;whiteSpace=wrap;rounded=0;fontSize=25;" parent="SAPvgv7C_WiaeEBQx2nU-114" vertex="1">
          <mxGeometry y="12.928416485900218" width="83.76623376623377" height="48.481561822125805" as="geometry" />
        </mxCell>
        <mxCell id="SAPvgv7C_WiaeEBQx2nU-117" value="&lt;span style=&quot;font-size: 25px;&quot;&gt;&lt;b style=&quot;font-size: 25px;&quot;&gt;M&lt;/b&gt;&lt;/span&gt;" style="text;html=1;align=center;verticalAlign=middle;whiteSpace=wrap;rounded=0;fontSize=25;" parent="SAPvgv7C_WiaeEBQx2nU-114" vertex="1">
          <mxGeometry x="230.35714285714283" y="12.928416485900218" width="83.76623376623377" height="48.481561822125805" as="geometry" />
        </mxCell>
        <mxCell id="SAPvgv7C_WiaeEBQx2nU-118" value="&lt;span style=&quot;font-size: 25px;&quot;&gt;&lt;b style=&quot;font-size: 25px;&quot;&gt;M&lt;/b&gt;&lt;/span&gt;" style="text;html=1;align=center;verticalAlign=middle;whiteSpace=wrap;rounded=0;fontSize=25;" parent="SAPvgv7C_WiaeEBQx2nU-128" vertex="1">
          <mxGeometry x="1696.9642857142858" y="197.15835140997834" width="83.76623376623377" height="48.481561822125805" as="geometry" />
        </mxCell>
        <mxCell id="SAPvgv7C_WiaeEBQx2nU-119" value="&lt;span style=&quot;font-size: 25px;&quot;&gt;&lt;b style=&quot;font-size: 25px;&quot;&gt;N&lt;/b&gt;&lt;/span&gt;" style="text;html=1;align=center;verticalAlign=middle;whiteSpace=wrap;rounded=0;fontSize=25;" parent="SAPvgv7C_WiaeEBQx2nU-128" vertex="1">
          <mxGeometry x="1920.3409090909088" y="197.15835140997834" width="83.76623376623377" height="48.481561822125805" as="geometry" />
        </mxCell>
        <mxCell id="SAPvgv7C_WiaeEBQx2nU-120" value="&lt;span style=&quot;font-size: 25px;&quot;&gt;&lt;b style=&quot;font-size: 25px;&quot;&gt;M&lt;/b&gt;&lt;/span&gt;" style="text;html=1;align=center;verticalAlign=middle;whiteSpace=wrap;rounded=0;fontSize=25;" parent="SAPvgv7C_WiaeEBQx2nU-128" vertex="1">
          <mxGeometry x="1491.0389610389611" y="681.1659436008678" width="83.76623376623377" height="48.481561822125805" as="geometry" />
        </mxCell>
        <mxCell id="SAPvgv7C_WiaeEBQx2nU-121" value="&lt;span style=&quot;font-size: 25px;&quot;&gt;&lt;b style=&quot;font-size: 25px;&quot;&gt;N&lt;/b&gt;&lt;/span&gt;" style="text;html=1;align=center;verticalAlign=middle;whiteSpace=wrap;rounded=0;fontSize=25;" parent="SAPvgv7C_WiaeEBQx2nU-128" vertex="1">
          <mxGeometry x="1724.1883116883116" y="690.054229934924" width="83.76623376623377" height="48.481561822125805" as="geometry" />
        </mxCell>
        <mxCell id="SAPvgv7C_WiaeEBQx2nU-122" value="&lt;span style=&quot;font-size: 25px;&quot;&gt;&lt;b style=&quot;font-size: 25px;&quot;&gt;M&lt;/b&gt;&lt;/span&gt;" style="text;html=1;align=center;verticalAlign=middle;whiteSpace=wrap;rounded=0;fontSize=25;" parent="SAPvgv7C_WiaeEBQx2nU-128" vertex="1">
          <mxGeometry x="1323.5064935064936" y="854.083514099783" width="83.76623376623377" height="48.481561822125805" as="geometry" />
        </mxCell>
        <mxCell id="SAPvgv7C_WiaeEBQx2nU-123" value="&lt;span style=&quot;font-size: 25px;&quot;&gt;&lt;b style=&quot;font-size: 25px;&quot;&gt;N&lt;/b&gt;&lt;/span&gt;" style="text;html=1;align=center;verticalAlign=middle;whiteSpace=wrap;rounded=0;fontSize=25;" parent="SAPvgv7C_WiaeEBQx2nU-128" vertex="1">
          <mxGeometry x="1541.2987012987014" y="871.0520607375271" width="83.76623376623377" height="48.481561822125805" as="geometry" />
        </mxCell>
        <mxCell id="SAPvgv7C_WiaeEBQx2nU-124" value="&lt;span style=&quot;font-size: 25px;&quot;&gt;&lt;b style=&quot;font-size: 25px;&quot;&gt;1&lt;/b&gt;&lt;/span&gt;" style="text;html=1;align=center;verticalAlign=middle;whiteSpace=wrap;rounded=0;fontSize=25;" parent="SAPvgv7C_WiaeEBQx2nU-128" vertex="1">
          <mxGeometry x="1037.3051948051946" y="1212.847071583514" width="83.76623376623377" height="48.481561822125805" as="geometry" />
        </mxCell>
        <mxCell id="SAPvgv7C_WiaeEBQx2nU-125" value="&lt;span style=&quot;font-size: 25px;&quot;&gt;&lt;b style=&quot;font-size: 25px;&quot;&gt;M&lt;/b&gt;&lt;/span&gt;" style="text;html=1;align=center;verticalAlign=middle;whiteSpace=wrap;rounded=0;fontSize=25;" parent="SAPvgv7C_WiaeEBQx2nU-128" vertex="1">
          <mxGeometry x="823.0032467532468" y="1207.9989154013017" width="83.76623376623377" height="48.481561822125805" as="geometry" />
        </mxCell>
        <mxCell id="SAPvgv7C_WiaeEBQx2nU-126" value="&lt;span style=&quot;font-size: 25px;&quot;&gt;&lt;b style=&quot;font-size: 25px;&quot;&gt;M&lt;/b&gt;&lt;/span&gt;" style="text;html=1;align=center;verticalAlign=middle;whiteSpace=wrap;rounded=0;fontSize=25;" parent="SAPvgv7C_WiaeEBQx2nU-128" vertex="1">
          <mxGeometry x="372.7597402597403" y="841.155097613883" width="83.76623376623377" height="48.481561822125805" as="geometry" />
        </mxCell>
        <mxCell id="SAPvgv7C_WiaeEBQx2nU-127" value="&lt;span style=&quot;font-size: 25px;&quot;&gt;&lt;b style=&quot;font-size: 25px;&quot;&gt;1&lt;/b&gt;&lt;/span&gt;" style="text;html=1;align=center;verticalAlign=middle;whiteSpace=wrap;rounded=0;fontSize=25;" parent="SAPvgv7C_WiaeEBQx2nU-128" vertex="1">
          <mxGeometry x="586.3636363636363" y="822.5704989154013" width="83.76623376623377" height="48.481561822125805" as="geometry" />
        </mxCell>
        <mxCell id="s9f5c8K0dIG-H0OI6QN--1" value="&lt;span style=&quot;font-size: 25px;&quot;&gt;&lt;b style=&quot;font-size: 25px;&quot;&gt;M&lt;/b&gt;&lt;/span&gt;" style="text;html=1;align=center;verticalAlign=middle;whiteSpace=wrap;rounded=0;fontSize=25;" vertex="1" parent="SAPvgv7C_WiaeEBQx2nU-128">
          <mxGeometry x="1162.161818181818" y="509.99624728850324" width="83.76623376623377" height="48.481561822125805" as="geometry" />
        </mxCell>
        <mxCell id="s9f5c8K0dIG-H0OI6QN--2" value="&lt;font style=&quot;font-size: 25px;&quot;&gt;&lt;b style=&quot;font-size: 25px;&quot;&gt;1&lt;/b&gt;&lt;/font&gt;" style="text;html=1;align=center;verticalAlign=middle;whiteSpace=wrap;rounded=0;fontSize=25;" vertex="1" parent="SAPvgv7C_WiaeEBQx2nU-128">
          <mxGeometry x="1400.0046753246752" y="517.1362472885032" width="83.76623376623377" height="48.481561822125805" as="geometry" />
        </mxCell>
      </root>
    </mxGraphModel>
  </diagram>
</mxfile>
